<mxfile host="app.diagrams.net" modified="2023-01-24T15:49:36.868Z" agent="5.0 (Macintosh; Intel Mac OS X 10_15_7) AppleWebKit/537.36 (KHTML, like Gecko) Chrome/109.0.0.0 Safari/537.36" etag="MzkP9SQV08e6OChxLbsv" version="20.8.10" type="github">
  <diagram id="C5RBs43oDa-KdzZeNtuy" name="Page-1">
    <mxGraphModel dx="2565" dy="1733" grid="1" gridSize="10" guides="1" tooltips="1" connect="1" arrows="1" fold="1" page="1" pageScale="1" pageWidth="1600" pageHeight="900" math="0" shadow="0">
      <root>
        <mxCell id="WIyWlLk6GJQsqaUBKTNV-0" />
        <mxCell id="WIyWlLk6GJQsqaUBKTNV-1" parent="WIyWlLk6GJQsqaUBKTNV-0" />
        <mxCell id="npKh-YMs9BCN0Nl7EQKS-0" value="company.car_data" style="shape=table;startSize=30;container=1;collapsible=1;childLayout=tableLayout;fixedRows=1;rowLines=1;fontStyle=0;align=center;resizeLast=1;strokeColor=#d6b656;fillColor=#fff2cc;swimlaneLine=1;columnLines=1;swimlaneHead=1;swimlaneBody=1;horizontal=1;connectable=1;allowArrows=1;dropTarget=1;editable=1;movable=1;resizable=1;rotatable=1;deletable=1;" parent="WIyWlLk6GJQsqaUBKTNV-1" vertex="1">
          <mxGeometry x="70" y="330" width="250" height="213" as="geometry">
            <mxRectangle x="90" y="60" width="60" height="30" as="alternateBounds" />
          </mxGeometry>
        </mxCell>
        <mxCell id="npKh-YMs9BCN0Nl7EQKS-1" value="" style="shape=tableRow;horizontal=0;startSize=0;swimlaneHead=0;swimlaneBody=0;fillColor=none;collapsible=0;dropTarget=0;points=[[0,0.5],[1,0.5]];portConstraint=eastwest;top=0;left=0;right=0;bottom=0;" parent="npKh-YMs9BCN0Nl7EQKS-0" vertex="1">
          <mxGeometry y="30" width="250" height="30" as="geometry" />
        </mxCell>
        <mxCell id="npKh-YMs9BCN0Nl7EQKS-2" value="PK" style="shape=partialRectangle;connectable=0;fillColor=none;top=0;left=0;bottom=0;right=0;fontStyle=0;overflow=hidden;" parent="npKh-YMs9BCN0Nl7EQKS-1" vertex="1">
          <mxGeometry width="40" height="30" as="geometry">
            <mxRectangle width="40" height="30" as="alternateBounds" />
          </mxGeometry>
        </mxCell>
        <mxCell id="npKh-YMs9BCN0Nl7EQKS-3" value="car_id" style="shape=partialRectangle;connectable=0;fillColor=none;top=0;left=0;bottom=0;right=0;align=left;spacingLeft=6;fontStyle=0;overflow=hidden;" parent="npKh-YMs9BCN0Nl7EQKS-1" vertex="1">
          <mxGeometry x="40" width="160" height="30" as="geometry">
            <mxRectangle width="160" height="30" as="alternateBounds" />
          </mxGeometry>
        </mxCell>
        <mxCell id="npKh-YMs9BCN0Nl7EQKS-17" value="integer" style="shape=partialRectangle;connectable=0;fillColor=none;top=0;left=0;bottom=0;right=0;align=left;spacingLeft=6;fontStyle=0;overflow=hidden;" parent="npKh-YMs9BCN0Nl7EQKS-1" vertex="1">
          <mxGeometry x="200" width="50" height="30" as="geometry">
            <mxRectangle width="50" height="30" as="alternateBounds" />
          </mxGeometry>
        </mxCell>
        <mxCell id="npKh-YMs9BCN0Nl7EQKS-4" value="" style="shape=tableRow;horizontal=0;startSize=0;swimlaneHead=0;swimlaneBody=0;fillColor=none;collapsible=0;dropTarget=0;points=[[0,0.5],[1,0.5]];portConstraint=eastwest;top=0;left=0;right=0;bottom=1;" parent="npKh-YMs9BCN0Nl7EQKS-0" vertex="1">
          <mxGeometry y="60" width="250" height="33" as="geometry" />
        </mxCell>
        <mxCell id="npKh-YMs9BCN0Nl7EQKS-5" value="PK" style="shape=partialRectangle;connectable=0;fillColor=none;top=0;left=0;bottom=0;right=0;fontStyle=0;overflow=hidden;strokeColor=inherit;" parent="npKh-YMs9BCN0Nl7EQKS-4" vertex="1">
          <mxGeometry width="40" height="33" as="geometry">
            <mxRectangle width="40" height="33" as="alternateBounds" />
          </mxGeometry>
        </mxCell>
        <mxCell id="npKh-YMs9BCN0Nl7EQKS-6" value="car_production_number" style="shape=partialRectangle;connectable=0;fillColor=none;top=0;left=0;bottom=0;right=0;align=left;spacingLeft=6;fontStyle=0;overflow=hidden;strokeColor=inherit;" parent="npKh-YMs9BCN0Nl7EQKS-4" vertex="1">
          <mxGeometry x="40" width="160" height="33" as="geometry">
            <mxRectangle width="160" height="33" as="alternateBounds" />
          </mxGeometry>
        </mxCell>
        <mxCell id="npKh-YMs9BCN0Nl7EQKS-18" value="integer" style="shape=partialRectangle;connectable=0;fillColor=none;top=0;left=0;bottom=0;right=0;align=left;spacingLeft=6;fontStyle=0;overflow=hidden;strokeColor=inherit;" parent="npKh-YMs9BCN0Nl7EQKS-4" vertex="1">
          <mxGeometry x="200" width="50" height="33" as="geometry">
            <mxRectangle width="50" height="33" as="alternateBounds" />
          </mxGeometry>
        </mxCell>
        <mxCell id="npKh-YMs9BCN0Nl7EQKS-7" value="" style="shape=tableRow;horizontal=0;startSize=0;swimlaneHead=0;swimlaneBody=0;fillColor=none;collapsible=0;dropTarget=0;points=[[0,0.5],[1,0.5]];portConstraint=eastwest;top=0;left=0;right=0;bottom=0;" parent="npKh-YMs9BCN0Nl7EQKS-0" vertex="1">
          <mxGeometry y="93" width="250" height="30" as="geometry" />
        </mxCell>
        <mxCell id="npKh-YMs9BCN0Nl7EQKS-8" value="PK" style="shape=partialRectangle;connectable=0;fillColor=none;top=0;left=0;bottom=0;right=0;editable=1;overflow=hidden;strokeColor=inherit;" parent="npKh-YMs9BCN0Nl7EQKS-7" vertex="1">
          <mxGeometry width="40" height="30" as="geometry">
            <mxRectangle width="40" height="30" as="alternateBounds" />
          </mxGeometry>
        </mxCell>
        <mxCell id="npKh-YMs9BCN0Nl7EQKS-9" value="model_registration_number" style="shape=partialRectangle;connectable=0;fillColor=none;top=0;left=0;bottom=0;right=0;align=left;spacingLeft=6;overflow=hidden;" parent="npKh-YMs9BCN0Nl7EQKS-7" vertex="1">
          <mxGeometry x="40" width="160" height="30" as="geometry">
            <mxRectangle width="160" height="30" as="alternateBounds" />
          </mxGeometry>
        </mxCell>
        <mxCell id="npKh-YMs9BCN0Nl7EQKS-19" value="integer" style="shape=partialRectangle;connectable=0;fillColor=none;top=0;left=0;bottom=0;right=0;align=left;spacingLeft=6;overflow=hidden;" parent="npKh-YMs9BCN0Nl7EQKS-7" vertex="1">
          <mxGeometry x="200" width="50" height="30" as="geometry">
            <mxRectangle width="50" height="30" as="alternateBounds" />
          </mxGeometry>
        </mxCell>
        <mxCell id="npKh-YMs9BCN0Nl7EQKS-10" value="" style="shape=tableRow;horizontal=0;startSize=0;swimlaneHead=0;swimlaneBody=0;fillColor=none;collapsible=0;dropTarget=0;points=[[0,0.5],[1,0.5]];portConstraint=eastwest;top=0;left=0;right=0;bottom=0;" parent="npKh-YMs9BCN0Nl7EQKS-0" vertex="1">
          <mxGeometry y="123" width="250" height="30" as="geometry" />
        </mxCell>
        <mxCell id="npKh-YMs9BCN0Nl7EQKS-11" value="PK" style="shape=partialRectangle;connectable=0;fillColor=none;top=0;left=0;bottom=0;right=0;editable=1;overflow=hidden;" parent="npKh-YMs9BCN0Nl7EQKS-10" vertex="1">
          <mxGeometry width="40" height="30" as="geometry">
            <mxRectangle width="40" height="30" as="alternateBounds" />
          </mxGeometry>
        </mxCell>
        <mxCell id="npKh-YMs9BCN0Nl7EQKS-12" value="emission_produced" style="shape=partialRectangle;connectable=0;fillColor=none;top=0;left=0;bottom=0;right=0;align=left;spacingLeft=6;overflow=hidden;" parent="npKh-YMs9BCN0Nl7EQKS-10" vertex="1">
          <mxGeometry x="40" width="160" height="30" as="geometry">
            <mxRectangle width="160" height="30" as="alternateBounds" />
          </mxGeometry>
        </mxCell>
        <mxCell id="npKh-YMs9BCN0Nl7EQKS-20" value="integer" style="shape=partialRectangle;connectable=0;fillColor=none;top=0;left=0;bottom=0;right=0;align=left;spacingLeft=6;overflow=hidden;" parent="npKh-YMs9BCN0Nl7EQKS-10" vertex="1">
          <mxGeometry x="200" width="50" height="30" as="geometry">
            <mxRectangle width="50" height="30" as="alternateBounds" />
          </mxGeometry>
        </mxCell>
        <mxCell id="npKh-YMs9BCN0Nl7EQKS-21" style="shape=tableRow;horizontal=0;startSize=0;swimlaneHead=0;swimlaneBody=0;fillColor=none;collapsible=0;dropTarget=0;points=[[0,0.5],[1,0.5]];portConstraint=eastwest;top=0;left=0;right=0;bottom=0;" parent="npKh-YMs9BCN0Nl7EQKS-0" vertex="1">
          <mxGeometry y="153" width="250" height="30" as="geometry" />
        </mxCell>
        <mxCell id="npKh-YMs9BCN0Nl7EQKS-22" style="shape=partialRectangle;connectable=0;fillColor=none;top=0;left=0;bottom=0;right=0;editable=1;overflow=hidden;" parent="npKh-YMs9BCN0Nl7EQKS-21" vertex="1">
          <mxGeometry width="40" height="30" as="geometry">
            <mxRectangle width="40" height="30" as="alternateBounds" />
          </mxGeometry>
        </mxCell>
        <mxCell id="npKh-YMs9BCN0Nl7EQKS-23" style="shape=partialRectangle;connectable=0;fillColor=none;top=0;left=0;bottom=0;right=0;align=left;spacingLeft=6;overflow=hidden;" parent="npKh-YMs9BCN0Nl7EQKS-21" vertex="1">
          <mxGeometry x="40" width="160" height="30" as="geometry">
            <mxRectangle width="160" height="30" as="alternateBounds" />
          </mxGeometry>
        </mxCell>
        <mxCell id="npKh-YMs9BCN0Nl7EQKS-24" style="shape=partialRectangle;connectable=0;fillColor=none;top=0;left=0;bottom=0;right=0;align=left;spacingLeft=6;overflow=hidden;" parent="npKh-YMs9BCN0Nl7EQKS-21" vertex="1">
          <mxGeometry x="200" width="50" height="30" as="geometry">
            <mxRectangle width="50" height="30" as="alternateBounds" />
          </mxGeometry>
        </mxCell>
        <mxCell id="w_pM22GlNIXaSQ3IIwrL-0" style="shape=tableRow;horizontal=0;startSize=0;swimlaneHead=0;swimlaneBody=0;fillColor=none;collapsible=0;dropTarget=0;points=[[0,0.5],[1,0.5]];portConstraint=eastwest;top=0;left=0;right=0;bottom=0;" vertex="1" parent="npKh-YMs9BCN0Nl7EQKS-0">
          <mxGeometry y="183" width="250" height="30" as="geometry" />
        </mxCell>
        <mxCell id="w_pM22GlNIXaSQ3IIwrL-1" style="shape=partialRectangle;connectable=0;fillColor=none;top=0;left=0;bottom=0;right=0;editable=1;overflow=hidden;" vertex="1" parent="w_pM22GlNIXaSQ3IIwrL-0">
          <mxGeometry width="40" height="30" as="geometry">
            <mxRectangle width="40" height="30" as="alternateBounds" />
          </mxGeometry>
        </mxCell>
        <mxCell id="w_pM22GlNIXaSQ3IIwrL-2" style="shape=partialRectangle;connectable=0;fillColor=none;top=0;left=0;bottom=0;right=0;align=left;spacingLeft=6;overflow=hidden;" vertex="1" parent="w_pM22GlNIXaSQ3IIwrL-0">
          <mxGeometry x="40" width="160" height="30" as="geometry">
            <mxRectangle width="160" height="30" as="alternateBounds" />
          </mxGeometry>
        </mxCell>
        <mxCell id="w_pM22GlNIXaSQ3IIwrL-3" style="shape=partialRectangle;connectable=0;fillColor=none;top=0;left=0;bottom=0;right=0;align=left;spacingLeft=6;overflow=hidden;" vertex="1" parent="w_pM22GlNIXaSQ3IIwrL-0">
          <mxGeometry x="200" width="50" height="30" as="geometry">
            <mxRectangle width="50" height="30" as="alternateBounds" />
          </mxGeometry>
        </mxCell>
        <mxCell id="w_pM22GlNIXaSQ3IIwrL-11" value="" style="edgeStyle=entityRelationEdgeStyle;fontSize=12;html=1;endArrow=ERone;endFill=1;rounded=0;startArrow=ERoneToMany;startFill=0;entryX=-0.008;entryY=0.108;entryDx=0;entryDy=0;entryPerimeter=0;" edge="1" parent="WIyWlLk6GJQsqaUBKTNV-1" target="w_pM22GlNIXaSQ3IIwrL-74">
          <mxGeometry width="100" height="100" relative="1" as="geometry">
            <mxPoint x="1020" y="490" as="sourcePoint" />
            <mxPoint x="1100" y="200" as="targetPoint" />
          </mxGeometry>
        </mxCell>
        <mxCell id="w_pM22GlNIXaSQ3IIwrL-199" value="Has" style="edgeLabel;html=1;align=center;verticalAlign=middle;resizable=0;points=[];" vertex="1" connectable="0" parent="w_pM22GlNIXaSQ3IIwrL-11">
          <mxGeometry x="0.0251" y="-2" relative="1" as="geometry">
            <mxPoint as="offset" />
          </mxGeometry>
        </mxCell>
        <mxCell id="w_pM22GlNIXaSQ3IIwrL-49" value="company.employee_data" style="shape=table;startSize=30;container=1;collapsible=1;childLayout=tableLayout;fixedRows=1;rowLines=1;fontStyle=0;align=center;resizeLast=1;strokeColor=#d6b656;fillColor=#fff2cc;swimlaneLine=1;columnLines=1;swimlaneHead=1;swimlaneBody=1;horizontal=1;connectable=1;allowArrows=1;dropTarget=1;editable=1;movable=1;resizable=1;rotatable=1;deletable=1;" vertex="1" parent="WIyWlLk6GJQsqaUBKTNV-1">
          <mxGeometry x="760" y="360" width="250" height="213" as="geometry">
            <mxRectangle x="90" y="60" width="60" height="30" as="alternateBounds" />
          </mxGeometry>
        </mxCell>
        <mxCell id="w_pM22GlNIXaSQ3IIwrL-50" value="" style="shape=tableRow;horizontal=0;startSize=0;swimlaneHead=0;swimlaneBody=0;fillColor=none;collapsible=0;dropTarget=0;points=[[0,0.5],[1,0.5]];portConstraint=eastwest;top=0;left=0;right=0;bottom=0;" vertex="1" parent="w_pM22GlNIXaSQ3IIwrL-49">
          <mxGeometry y="30" width="250" height="30" as="geometry" />
        </mxCell>
        <mxCell id="w_pM22GlNIXaSQ3IIwrL-51" value="PK" style="shape=partialRectangle;connectable=0;fillColor=none;top=0;left=0;bottom=0;right=0;fontStyle=0;overflow=hidden;" vertex="1" parent="w_pM22GlNIXaSQ3IIwrL-50">
          <mxGeometry width="40" height="30" as="geometry">
            <mxRectangle width="40" height="30" as="alternateBounds" />
          </mxGeometry>
        </mxCell>
        <mxCell id="w_pM22GlNIXaSQ3IIwrL-52" value="employee_id" style="shape=partialRectangle;connectable=0;fillColor=none;top=0;left=0;bottom=0;right=0;align=left;spacingLeft=6;fontStyle=0;overflow=hidden;" vertex="1" parent="w_pM22GlNIXaSQ3IIwrL-50">
          <mxGeometry x="40" width="160" height="30" as="geometry">
            <mxRectangle width="160" height="30" as="alternateBounds" />
          </mxGeometry>
        </mxCell>
        <mxCell id="w_pM22GlNIXaSQ3IIwrL-53" value="character varying(50)" style="shape=partialRectangle;connectable=0;fillColor=none;top=0;left=0;bottom=0;right=0;align=left;spacingLeft=6;fontStyle=0;overflow=hidden;" vertex="1" parent="w_pM22GlNIXaSQ3IIwrL-50">
          <mxGeometry x="200" width="50" height="30" as="geometry">
            <mxRectangle width="50" height="30" as="alternateBounds" />
          </mxGeometry>
        </mxCell>
        <mxCell id="w_pM22GlNIXaSQ3IIwrL-54" value="" style="shape=tableRow;horizontal=0;startSize=0;swimlaneHead=0;swimlaneBody=0;fillColor=none;collapsible=0;dropTarget=0;points=[[0,0.5],[1,0.5]];portConstraint=eastwest;top=0;left=0;right=0;bottom=1;" vertex="1" parent="w_pM22GlNIXaSQ3IIwrL-49">
          <mxGeometry y="60" width="250" height="33" as="geometry" />
        </mxCell>
        <mxCell id="w_pM22GlNIXaSQ3IIwrL-55" value="PK" style="shape=partialRectangle;connectable=0;fillColor=none;top=0;left=0;bottom=0;right=0;fontStyle=0;overflow=hidden;strokeColor=inherit;" vertex="1" parent="w_pM22GlNIXaSQ3IIwrL-54">
          <mxGeometry width="40" height="33" as="geometry">
            <mxRectangle width="40" height="33" as="alternateBounds" />
          </mxGeometry>
        </mxCell>
        <mxCell id="w_pM22GlNIXaSQ3IIwrL-56" value="employee_name" style="shape=partialRectangle;connectable=0;fillColor=none;top=0;left=0;bottom=0;right=0;align=left;spacingLeft=6;fontStyle=0;overflow=hidden;strokeColor=inherit;" vertex="1" parent="w_pM22GlNIXaSQ3IIwrL-54">
          <mxGeometry x="40" width="160" height="33" as="geometry">
            <mxRectangle width="160" height="33" as="alternateBounds" />
          </mxGeometry>
        </mxCell>
        <mxCell id="w_pM22GlNIXaSQ3IIwrL-57" value="integer" style="shape=partialRectangle;connectable=0;fillColor=none;top=0;left=0;bottom=0;right=0;align=left;spacingLeft=6;fontStyle=0;overflow=hidden;strokeColor=inherit;" vertex="1" parent="w_pM22GlNIXaSQ3IIwrL-54">
          <mxGeometry x="200" width="50" height="33" as="geometry">
            <mxRectangle width="50" height="33" as="alternateBounds" />
          </mxGeometry>
        </mxCell>
        <mxCell id="w_pM22GlNIXaSQ3IIwrL-58" value="" style="shape=tableRow;horizontal=0;startSize=0;swimlaneHead=0;swimlaneBody=0;fillColor=none;collapsible=0;dropTarget=0;points=[[0,0.5],[1,0.5]];portConstraint=eastwest;top=0;left=0;right=0;bottom=0;" vertex="1" parent="w_pM22GlNIXaSQ3IIwrL-49">
          <mxGeometry y="93" width="250" height="30" as="geometry" />
        </mxCell>
        <mxCell id="w_pM22GlNIXaSQ3IIwrL-59" value="PK" style="shape=partialRectangle;connectable=0;fillColor=none;top=0;left=0;bottom=0;right=0;editable=1;overflow=hidden;strokeColor=inherit;" vertex="1" parent="w_pM22GlNIXaSQ3IIwrL-58">
          <mxGeometry width="40" height="30" as="geometry">
            <mxRectangle width="40" height="30" as="alternateBounds" />
          </mxGeometry>
        </mxCell>
        <mxCell id="w_pM22GlNIXaSQ3IIwrL-60" value="driving_license" style="shape=partialRectangle;connectable=0;fillColor=none;top=0;left=0;bottom=0;right=0;align=left;spacingLeft=6;overflow=hidden;" vertex="1" parent="w_pM22GlNIXaSQ3IIwrL-58">
          <mxGeometry x="40" width="160" height="30" as="geometry">
            <mxRectangle width="160" height="30" as="alternateBounds" />
          </mxGeometry>
        </mxCell>
        <mxCell id="w_pM22GlNIXaSQ3IIwrL-61" value="" style="shape=partialRectangle;connectable=0;fillColor=none;top=0;left=0;bottom=0;right=0;align=left;spacingLeft=6;overflow=hidden;" vertex="1" parent="w_pM22GlNIXaSQ3IIwrL-58">
          <mxGeometry x="200" width="50" height="30" as="geometry">
            <mxRectangle width="50" height="30" as="alternateBounds" />
          </mxGeometry>
        </mxCell>
        <mxCell id="w_pM22GlNIXaSQ3IIwrL-62" value="" style="shape=tableRow;horizontal=0;startSize=0;swimlaneHead=0;swimlaneBody=0;fillColor=none;collapsible=0;dropTarget=0;points=[[0,0.5],[1,0.5]];portConstraint=eastwest;top=0;left=0;right=0;bottom=0;" vertex="1" parent="w_pM22GlNIXaSQ3IIwrL-49">
          <mxGeometry y="123" width="250" height="30" as="geometry" />
        </mxCell>
        <mxCell id="w_pM22GlNIXaSQ3IIwrL-63" value="FK" style="shape=partialRectangle;connectable=0;fillColor=none;top=0;left=0;bottom=0;right=0;editable=1;overflow=hidden;" vertex="1" parent="w_pM22GlNIXaSQ3IIwrL-62">
          <mxGeometry width="40" height="30" as="geometry">
            <mxRectangle width="40" height="30" as="alternateBounds" />
          </mxGeometry>
        </mxCell>
        <mxCell id="w_pM22GlNIXaSQ3IIwrL-64" value="department_id" style="shape=partialRectangle;connectable=0;fillColor=none;top=0;left=0;bottom=0;right=0;align=left;spacingLeft=6;overflow=hidden;" vertex="1" parent="w_pM22GlNIXaSQ3IIwrL-62">
          <mxGeometry x="40" width="160" height="30" as="geometry">
            <mxRectangle width="160" height="30" as="alternateBounds" />
          </mxGeometry>
        </mxCell>
        <mxCell id="w_pM22GlNIXaSQ3IIwrL-65" style="shape=partialRectangle;connectable=0;fillColor=none;top=0;left=0;bottom=0;right=0;align=left;spacingLeft=6;overflow=hidden;" vertex="1" parent="w_pM22GlNIXaSQ3IIwrL-62">
          <mxGeometry x="200" width="50" height="30" as="geometry">
            <mxRectangle width="50" height="30" as="alternateBounds" />
          </mxGeometry>
        </mxCell>
        <mxCell id="w_pM22GlNIXaSQ3IIwrL-66" style="shape=tableRow;horizontal=0;startSize=0;swimlaneHead=0;swimlaneBody=0;fillColor=none;collapsible=0;dropTarget=0;points=[[0,0.5],[1,0.5]];portConstraint=eastwest;top=0;left=0;right=0;bottom=0;" vertex="1" parent="w_pM22GlNIXaSQ3IIwrL-49">
          <mxGeometry y="153" width="250" height="30" as="geometry" />
        </mxCell>
        <mxCell id="w_pM22GlNIXaSQ3IIwrL-67" style="shape=partialRectangle;connectable=0;fillColor=none;top=0;left=0;bottom=0;right=0;editable=1;overflow=hidden;" vertex="1" parent="w_pM22GlNIXaSQ3IIwrL-66">
          <mxGeometry width="40" height="30" as="geometry">
            <mxRectangle width="40" height="30" as="alternateBounds" />
          </mxGeometry>
        </mxCell>
        <mxCell id="w_pM22GlNIXaSQ3IIwrL-68" style="shape=partialRectangle;connectable=0;fillColor=none;top=0;left=0;bottom=0;right=0;align=left;spacingLeft=6;overflow=hidden;" vertex="1" parent="w_pM22GlNIXaSQ3IIwrL-66">
          <mxGeometry x="40" width="160" height="30" as="geometry">
            <mxRectangle width="160" height="30" as="alternateBounds" />
          </mxGeometry>
        </mxCell>
        <mxCell id="w_pM22GlNIXaSQ3IIwrL-69" style="shape=partialRectangle;connectable=0;fillColor=none;top=0;left=0;bottom=0;right=0;align=left;spacingLeft=6;overflow=hidden;" vertex="1" parent="w_pM22GlNIXaSQ3IIwrL-66">
          <mxGeometry x="200" width="50" height="30" as="geometry">
            <mxRectangle width="50" height="30" as="alternateBounds" />
          </mxGeometry>
        </mxCell>
        <mxCell id="w_pM22GlNIXaSQ3IIwrL-70" style="shape=tableRow;horizontal=0;startSize=0;swimlaneHead=0;swimlaneBody=0;fillColor=none;collapsible=0;dropTarget=0;points=[[0,0.5],[1,0.5]];portConstraint=eastwest;top=0;left=0;right=0;bottom=0;" vertex="1" parent="w_pM22GlNIXaSQ3IIwrL-49">
          <mxGeometry y="183" width="250" height="30" as="geometry" />
        </mxCell>
        <mxCell id="w_pM22GlNIXaSQ3IIwrL-71" style="shape=partialRectangle;connectable=0;fillColor=none;top=0;left=0;bottom=0;right=0;editable=1;overflow=hidden;" vertex="1" parent="w_pM22GlNIXaSQ3IIwrL-70">
          <mxGeometry width="40" height="30" as="geometry">
            <mxRectangle width="40" height="30" as="alternateBounds" />
          </mxGeometry>
        </mxCell>
        <mxCell id="w_pM22GlNIXaSQ3IIwrL-72" style="shape=partialRectangle;connectable=0;fillColor=none;top=0;left=0;bottom=0;right=0;align=left;spacingLeft=6;overflow=hidden;" vertex="1" parent="w_pM22GlNIXaSQ3IIwrL-70">
          <mxGeometry x="40" width="160" height="30" as="geometry">
            <mxRectangle width="160" height="30" as="alternateBounds" />
          </mxGeometry>
        </mxCell>
        <mxCell id="w_pM22GlNIXaSQ3IIwrL-73" style="shape=partialRectangle;connectable=0;fillColor=none;top=0;left=0;bottom=0;right=0;align=left;spacingLeft=6;overflow=hidden;" vertex="1" parent="w_pM22GlNIXaSQ3IIwrL-70">
          <mxGeometry x="200" width="50" height="30" as="geometry">
            <mxRectangle width="50" height="30" as="alternateBounds" />
          </mxGeometry>
        </mxCell>
        <mxCell id="w_pM22GlNIXaSQ3IIwrL-74" value="company.manager_data" style="shape=table;startSize=30;container=1;collapsible=1;childLayout=tableLayout;fixedRows=1;rowLines=1;fontStyle=0;align=center;resizeLast=1;strokeColor=#d6b656;fillColor=#fff2cc;swimlaneLine=1;columnLines=1;swimlaneHead=1;swimlaneBody=1;horizontal=1;connectable=1;allowArrows=1;dropTarget=1;editable=1;movable=1;resizable=1;rotatable=1;deletable=1;" vertex="1" parent="WIyWlLk6GJQsqaUBKTNV-1">
          <mxGeometry x="1160" y="47" width="250" height="213" as="geometry">
            <mxRectangle x="90" y="60" width="60" height="30" as="alternateBounds" />
          </mxGeometry>
        </mxCell>
        <mxCell id="w_pM22GlNIXaSQ3IIwrL-75" value="" style="shape=tableRow;horizontal=0;startSize=0;swimlaneHead=0;swimlaneBody=0;fillColor=none;collapsible=0;dropTarget=0;points=[[0,0.5],[1,0.5]];portConstraint=eastwest;top=0;left=0;right=0;bottom=0;" vertex="1" parent="w_pM22GlNIXaSQ3IIwrL-74">
          <mxGeometry y="30" width="250" height="30" as="geometry" />
        </mxCell>
        <mxCell id="w_pM22GlNIXaSQ3IIwrL-76" value="PK" style="shape=partialRectangle;connectable=0;fillColor=none;top=0;left=0;bottom=0;right=0;fontStyle=0;overflow=hidden;" vertex="1" parent="w_pM22GlNIXaSQ3IIwrL-75">
          <mxGeometry width="40" height="30" as="geometry">
            <mxRectangle width="40" height="30" as="alternateBounds" />
          </mxGeometry>
        </mxCell>
        <mxCell id="w_pM22GlNIXaSQ3IIwrL-77" value="manager_id" style="shape=partialRectangle;connectable=0;fillColor=none;top=0;left=0;bottom=0;right=0;align=left;spacingLeft=6;fontStyle=0;overflow=hidden;" vertex="1" parent="w_pM22GlNIXaSQ3IIwrL-75">
          <mxGeometry x="40" width="160" height="30" as="geometry">
            <mxRectangle width="160" height="30" as="alternateBounds" />
          </mxGeometry>
        </mxCell>
        <mxCell id="w_pM22GlNIXaSQ3IIwrL-78" value="integer" style="shape=partialRectangle;connectable=0;fillColor=none;top=0;left=0;bottom=0;right=0;align=left;spacingLeft=6;fontStyle=0;overflow=hidden;" vertex="1" parent="w_pM22GlNIXaSQ3IIwrL-75">
          <mxGeometry x="200" width="50" height="30" as="geometry">
            <mxRectangle width="50" height="30" as="alternateBounds" />
          </mxGeometry>
        </mxCell>
        <mxCell id="w_pM22GlNIXaSQ3IIwrL-79" value="" style="shape=tableRow;horizontal=0;startSize=0;swimlaneHead=0;swimlaneBody=0;fillColor=none;collapsible=0;dropTarget=0;points=[[0,0.5],[1,0.5]];portConstraint=eastwest;top=0;left=0;right=0;bottom=1;" vertex="1" parent="w_pM22GlNIXaSQ3IIwrL-74">
          <mxGeometry y="60" width="250" height="33" as="geometry" />
        </mxCell>
        <mxCell id="w_pM22GlNIXaSQ3IIwrL-80" value="PK" style="shape=partialRectangle;connectable=0;fillColor=none;top=0;left=0;bottom=0;right=0;fontStyle=0;overflow=hidden;strokeColor=inherit;" vertex="1" parent="w_pM22GlNIXaSQ3IIwrL-79">
          <mxGeometry width="40" height="33" as="geometry">
            <mxRectangle width="40" height="33" as="alternateBounds" />
          </mxGeometry>
        </mxCell>
        <mxCell id="w_pM22GlNIXaSQ3IIwrL-81" value="manager_name" style="shape=partialRectangle;connectable=0;fillColor=none;top=0;left=0;bottom=0;right=0;align=left;spacingLeft=6;fontStyle=0;overflow=hidden;strokeColor=inherit;" vertex="1" parent="w_pM22GlNIXaSQ3IIwrL-79">
          <mxGeometry x="40" width="160" height="33" as="geometry">
            <mxRectangle width="160" height="33" as="alternateBounds" />
          </mxGeometry>
        </mxCell>
        <mxCell id="w_pM22GlNIXaSQ3IIwrL-82" value="" style="shape=partialRectangle;connectable=0;fillColor=none;top=0;left=0;bottom=0;right=0;align=left;spacingLeft=6;fontStyle=0;overflow=hidden;strokeColor=inherit;" vertex="1" parent="w_pM22GlNIXaSQ3IIwrL-79">
          <mxGeometry x="200" width="50" height="33" as="geometry">
            <mxRectangle width="50" height="33" as="alternateBounds" />
          </mxGeometry>
        </mxCell>
        <mxCell id="w_pM22GlNIXaSQ3IIwrL-83" value="" style="shape=tableRow;horizontal=0;startSize=0;swimlaneHead=0;swimlaneBody=0;fillColor=none;collapsible=0;dropTarget=0;points=[[0,0.5],[1,0.5]];portConstraint=eastwest;top=0;left=0;right=0;bottom=0;" vertex="1" parent="w_pM22GlNIXaSQ3IIwrL-74">
          <mxGeometry y="93" width="250" height="30" as="geometry" />
        </mxCell>
        <mxCell id="w_pM22GlNIXaSQ3IIwrL-84" value="FK" style="shape=partialRectangle;connectable=0;fillColor=none;top=0;left=0;bottom=0;right=0;editable=1;overflow=hidden;strokeColor=inherit;" vertex="1" parent="w_pM22GlNIXaSQ3IIwrL-83">
          <mxGeometry width="40" height="30" as="geometry">
            <mxRectangle width="40" height="30" as="alternateBounds" />
          </mxGeometry>
        </mxCell>
        <mxCell id="w_pM22GlNIXaSQ3IIwrL-85" value="department_id" style="shape=partialRectangle;connectable=0;fillColor=none;top=0;left=0;bottom=0;right=0;align=left;spacingLeft=6;overflow=hidden;" vertex="1" parent="w_pM22GlNIXaSQ3IIwrL-83">
          <mxGeometry x="40" width="160" height="30" as="geometry">
            <mxRectangle width="160" height="30" as="alternateBounds" />
          </mxGeometry>
        </mxCell>
        <mxCell id="w_pM22GlNIXaSQ3IIwrL-86" value="" style="shape=partialRectangle;connectable=0;fillColor=none;top=0;left=0;bottom=0;right=0;align=left;spacingLeft=6;overflow=hidden;" vertex="1" parent="w_pM22GlNIXaSQ3IIwrL-83">
          <mxGeometry x="200" width="50" height="30" as="geometry">
            <mxRectangle width="50" height="30" as="alternateBounds" />
          </mxGeometry>
        </mxCell>
        <mxCell id="w_pM22GlNIXaSQ3IIwrL-87" value="" style="shape=tableRow;horizontal=0;startSize=0;swimlaneHead=0;swimlaneBody=0;fillColor=none;collapsible=0;dropTarget=0;points=[[0,0.5],[1,0.5]];portConstraint=eastwest;top=0;left=0;right=0;bottom=0;" vertex="1" parent="w_pM22GlNIXaSQ3IIwrL-74">
          <mxGeometry y="123" width="250" height="30" as="geometry" />
        </mxCell>
        <mxCell id="w_pM22GlNIXaSQ3IIwrL-88" value="" style="shape=partialRectangle;connectable=0;fillColor=none;top=0;left=0;bottom=0;right=0;editable=1;overflow=hidden;" vertex="1" parent="w_pM22GlNIXaSQ3IIwrL-87">
          <mxGeometry width="40" height="30" as="geometry">
            <mxRectangle width="40" height="30" as="alternateBounds" />
          </mxGeometry>
        </mxCell>
        <mxCell id="w_pM22GlNIXaSQ3IIwrL-89" value="" style="shape=partialRectangle;connectable=0;fillColor=none;top=0;left=0;bottom=0;right=0;align=left;spacingLeft=6;overflow=hidden;" vertex="1" parent="w_pM22GlNIXaSQ3IIwrL-87">
          <mxGeometry x="40" width="160" height="30" as="geometry">
            <mxRectangle width="160" height="30" as="alternateBounds" />
          </mxGeometry>
        </mxCell>
        <mxCell id="w_pM22GlNIXaSQ3IIwrL-90" style="shape=partialRectangle;connectable=0;fillColor=none;top=0;left=0;bottom=0;right=0;align=left;spacingLeft=6;overflow=hidden;" vertex="1" parent="w_pM22GlNIXaSQ3IIwrL-87">
          <mxGeometry x="200" width="50" height="30" as="geometry">
            <mxRectangle width="50" height="30" as="alternateBounds" />
          </mxGeometry>
        </mxCell>
        <mxCell id="w_pM22GlNIXaSQ3IIwrL-91" style="shape=tableRow;horizontal=0;startSize=0;swimlaneHead=0;swimlaneBody=0;fillColor=none;collapsible=0;dropTarget=0;points=[[0,0.5],[1,0.5]];portConstraint=eastwest;top=0;left=0;right=0;bottom=0;" vertex="1" parent="w_pM22GlNIXaSQ3IIwrL-74">
          <mxGeometry y="153" width="250" height="30" as="geometry" />
        </mxCell>
        <mxCell id="w_pM22GlNIXaSQ3IIwrL-92" style="shape=partialRectangle;connectable=0;fillColor=none;top=0;left=0;bottom=0;right=0;editable=1;overflow=hidden;" vertex="1" parent="w_pM22GlNIXaSQ3IIwrL-91">
          <mxGeometry width="40" height="30" as="geometry">
            <mxRectangle width="40" height="30" as="alternateBounds" />
          </mxGeometry>
        </mxCell>
        <mxCell id="w_pM22GlNIXaSQ3IIwrL-93" style="shape=partialRectangle;connectable=0;fillColor=none;top=0;left=0;bottom=0;right=0;align=left;spacingLeft=6;overflow=hidden;" vertex="1" parent="w_pM22GlNIXaSQ3IIwrL-91">
          <mxGeometry x="40" width="160" height="30" as="geometry">
            <mxRectangle width="160" height="30" as="alternateBounds" />
          </mxGeometry>
        </mxCell>
        <mxCell id="w_pM22GlNIXaSQ3IIwrL-94" style="shape=partialRectangle;connectable=0;fillColor=none;top=0;left=0;bottom=0;right=0;align=left;spacingLeft=6;overflow=hidden;" vertex="1" parent="w_pM22GlNIXaSQ3IIwrL-91">
          <mxGeometry x="200" width="50" height="30" as="geometry">
            <mxRectangle width="50" height="30" as="alternateBounds" />
          </mxGeometry>
        </mxCell>
        <mxCell id="w_pM22GlNIXaSQ3IIwrL-95" style="shape=tableRow;horizontal=0;startSize=0;swimlaneHead=0;swimlaneBody=0;fillColor=none;collapsible=0;dropTarget=0;points=[[0,0.5],[1,0.5]];portConstraint=eastwest;top=0;left=0;right=0;bottom=0;" vertex="1" parent="w_pM22GlNIXaSQ3IIwrL-74">
          <mxGeometry y="183" width="250" height="30" as="geometry" />
        </mxCell>
        <mxCell id="w_pM22GlNIXaSQ3IIwrL-96" style="shape=partialRectangle;connectable=0;fillColor=none;top=0;left=0;bottom=0;right=0;editable=1;overflow=hidden;" vertex="1" parent="w_pM22GlNIXaSQ3IIwrL-95">
          <mxGeometry width="40" height="30" as="geometry">
            <mxRectangle width="40" height="30" as="alternateBounds" />
          </mxGeometry>
        </mxCell>
        <mxCell id="w_pM22GlNIXaSQ3IIwrL-97" style="shape=partialRectangle;connectable=0;fillColor=none;top=0;left=0;bottom=0;right=0;align=left;spacingLeft=6;overflow=hidden;" vertex="1" parent="w_pM22GlNIXaSQ3IIwrL-95">
          <mxGeometry x="40" width="160" height="30" as="geometry">
            <mxRectangle width="160" height="30" as="alternateBounds" />
          </mxGeometry>
        </mxCell>
        <mxCell id="w_pM22GlNIXaSQ3IIwrL-98" style="shape=partialRectangle;connectable=0;fillColor=none;top=0;left=0;bottom=0;right=0;align=left;spacingLeft=6;overflow=hidden;" vertex="1" parent="w_pM22GlNIXaSQ3IIwrL-95">
          <mxGeometry x="200" width="50" height="30" as="geometry">
            <mxRectangle width="50" height="30" as="alternateBounds" />
          </mxGeometry>
        </mxCell>
        <mxCell id="w_pM22GlNIXaSQ3IIwrL-99" value="company.borrow_car_registration" style="shape=table;startSize=30;container=1;collapsible=1;childLayout=tableLayout;fixedRows=1;rowLines=1;fontStyle=0;align=center;resizeLast=1;strokeColor=#d6b656;fillColor=#fff2cc;swimlaneLine=1;columnLines=1;swimlaneHead=1;swimlaneBody=1;horizontal=1;connectable=1;allowArrows=1;dropTarget=1;editable=1;movable=1;resizable=1;rotatable=1;deletable=1;" vertex="1" parent="WIyWlLk6GJQsqaUBKTNV-1">
          <mxGeometry x="70" y="47" width="250" height="213" as="geometry">
            <mxRectangle x="90" y="60" width="60" height="30" as="alternateBounds" />
          </mxGeometry>
        </mxCell>
        <mxCell id="w_pM22GlNIXaSQ3IIwrL-100" value="" style="shape=tableRow;horizontal=0;startSize=0;swimlaneHead=0;swimlaneBody=0;fillColor=none;collapsible=0;dropTarget=0;points=[[0,0.5],[1,0.5]];portConstraint=eastwest;top=0;left=0;right=0;bottom=0;" vertex="1" parent="w_pM22GlNIXaSQ3IIwrL-99">
          <mxGeometry y="30" width="250" height="30" as="geometry" />
        </mxCell>
        <mxCell id="w_pM22GlNIXaSQ3IIwrL-101" value="PK" style="shape=partialRectangle;connectable=0;fillColor=none;top=0;left=0;bottom=0;right=0;fontStyle=0;overflow=hidden;" vertex="1" parent="w_pM22GlNIXaSQ3IIwrL-100">
          <mxGeometry width="40" height="30" as="geometry">
            <mxRectangle width="40" height="30" as="alternateBounds" />
          </mxGeometry>
        </mxCell>
        <mxCell id="w_pM22GlNIXaSQ3IIwrL-102" value="registration_number" style="shape=partialRectangle;connectable=0;fillColor=none;top=0;left=0;bottom=0;right=0;align=left;spacingLeft=6;fontStyle=0;overflow=hidden;" vertex="1" parent="w_pM22GlNIXaSQ3IIwrL-100">
          <mxGeometry x="40" width="120" height="30" as="geometry">
            <mxRectangle width="120" height="30" as="alternateBounds" />
          </mxGeometry>
        </mxCell>
        <mxCell id="w_pM22GlNIXaSQ3IIwrL-103" value="character varying(50)" style="shape=partialRectangle;connectable=0;fillColor=none;top=0;left=0;bottom=0;right=0;align=left;spacingLeft=6;fontStyle=0;overflow=hidden;" vertex="1" parent="w_pM22GlNIXaSQ3IIwrL-100">
          <mxGeometry x="160" width="90" height="30" as="geometry">
            <mxRectangle width="90" height="30" as="alternateBounds" />
          </mxGeometry>
        </mxCell>
        <mxCell id="w_pM22GlNIXaSQ3IIwrL-104" value="" style="shape=tableRow;horizontal=0;startSize=0;swimlaneHead=0;swimlaneBody=0;fillColor=none;collapsible=0;dropTarget=0;points=[[0,0.5],[1,0.5]];portConstraint=eastwest;top=0;left=0;right=0;bottom=1;" vertex="1" parent="w_pM22GlNIXaSQ3IIwrL-99">
          <mxGeometry y="60" width="250" height="33" as="geometry" />
        </mxCell>
        <mxCell id="w_pM22GlNIXaSQ3IIwrL-105" value="FK" style="shape=partialRectangle;connectable=0;fillColor=none;top=0;left=0;bottom=0;right=0;fontStyle=0;overflow=hidden;strokeColor=inherit;" vertex="1" parent="w_pM22GlNIXaSQ3IIwrL-104">
          <mxGeometry width="40" height="33" as="geometry">
            <mxRectangle width="40" height="33" as="alternateBounds" />
          </mxGeometry>
        </mxCell>
        <mxCell id="w_pM22GlNIXaSQ3IIwrL-106" value="driving_license" style="shape=partialRectangle;connectable=0;fillColor=none;top=0;left=0;bottom=0;right=0;align=left;spacingLeft=6;fontStyle=0;overflow=hidden;strokeColor=inherit;" vertex="1" parent="w_pM22GlNIXaSQ3IIwrL-104">
          <mxGeometry x="40" width="120" height="33" as="geometry">
            <mxRectangle width="120" height="33" as="alternateBounds" />
          </mxGeometry>
        </mxCell>
        <mxCell id="w_pM22GlNIXaSQ3IIwrL-107" value="integer" style="shape=partialRectangle;connectable=0;fillColor=none;top=0;left=0;bottom=0;right=0;align=left;spacingLeft=6;fontStyle=0;overflow=hidden;strokeColor=inherit;" vertex="1" parent="w_pM22GlNIXaSQ3IIwrL-104">
          <mxGeometry x="160" width="90" height="33" as="geometry">
            <mxRectangle width="90" height="33" as="alternateBounds" />
          </mxGeometry>
        </mxCell>
        <mxCell id="w_pM22GlNIXaSQ3IIwrL-108" value="" style="shape=tableRow;horizontal=0;startSize=0;swimlaneHead=0;swimlaneBody=0;fillColor=none;collapsible=0;dropTarget=0;points=[[0,0.5],[1,0.5]];portConstraint=eastwest;top=0;left=0;right=0;bottom=0;" vertex="1" parent="w_pM22GlNIXaSQ3IIwrL-99">
          <mxGeometry y="93" width="250" height="30" as="geometry" />
        </mxCell>
        <mxCell id="w_pM22GlNIXaSQ3IIwrL-109" value="" style="shape=partialRectangle;connectable=0;fillColor=none;top=0;left=0;bottom=0;right=0;editable=1;overflow=hidden;strokeColor=inherit;" vertex="1" parent="w_pM22GlNIXaSQ3IIwrL-108">
          <mxGeometry width="40" height="30" as="geometry">
            <mxRectangle width="40" height="30" as="alternateBounds" />
          </mxGeometry>
        </mxCell>
        <mxCell id="w_pM22GlNIXaSQ3IIwrL-110" value="" style="shape=partialRectangle;connectable=0;fillColor=none;top=0;left=0;bottom=0;right=0;align=left;spacingLeft=6;overflow=hidden;" vertex="1" parent="w_pM22GlNIXaSQ3IIwrL-108">
          <mxGeometry x="40" width="120" height="30" as="geometry">
            <mxRectangle width="120" height="30" as="alternateBounds" />
          </mxGeometry>
        </mxCell>
        <mxCell id="w_pM22GlNIXaSQ3IIwrL-111" value="" style="shape=partialRectangle;connectable=0;fillColor=none;top=0;left=0;bottom=0;right=0;align=left;spacingLeft=6;overflow=hidden;" vertex="1" parent="w_pM22GlNIXaSQ3IIwrL-108">
          <mxGeometry x="160" width="90" height="30" as="geometry">
            <mxRectangle width="90" height="30" as="alternateBounds" />
          </mxGeometry>
        </mxCell>
        <mxCell id="w_pM22GlNIXaSQ3IIwrL-112" value="" style="shape=tableRow;horizontal=0;startSize=0;swimlaneHead=0;swimlaneBody=0;fillColor=none;collapsible=0;dropTarget=0;points=[[0,0.5],[1,0.5]];portConstraint=eastwest;top=0;left=0;right=0;bottom=0;" vertex="1" parent="w_pM22GlNIXaSQ3IIwrL-99">
          <mxGeometry y="123" width="250" height="30" as="geometry" />
        </mxCell>
        <mxCell id="w_pM22GlNIXaSQ3IIwrL-113" value="" style="shape=partialRectangle;connectable=0;fillColor=none;top=0;left=0;bottom=0;right=0;editable=1;overflow=hidden;" vertex="1" parent="w_pM22GlNIXaSQ3IIwrL-112">
          <mxGeometry width="40" height="30" as="geometry">
            <mxRectangle width="40" height="30" as="alternateBounds" />
          </mxGeometry>
        </mxCell>
        <mxCell id="w_pM22GlNIXaSQ3IIwrL-114" value="" style="shape=partialRectangle;connectable=0;fillColor=none;top=0;left=0;bottom=0;right=0;align=left;spacingLeft=6;overflow=hidden;" vertex="1" parent="w_pM22GlNIXaSQ3IIwrL-112">
          <mxGeometry x="40" width="120" height="30" as="geometry">
            <mxRectangle width="120" height="30" as="alternateBounds" />
          </mxGeometry>
        </mxCell>
        <mxCell id="w_pM22GlNIXaSQ3IIwrL-115" style="shape=partialRectangle;connectable=0;fillColor=none;top=0;left=0;bottom=0;right=0;align=left;spacingLeft=6;overflow=hidden;" vertex="1" parent="w_pM22GlNIXaSQ3IIwrL-112">
          <mxGeometry x="160" width="90" height="30" as="geometry">
            <mxRectangle width="90" height="30" as="alternateBounds" />
          </mxGeometry>
        </mxCell>
        <mxCell id="w_pM22GlNIXaSQ3IIwrL-116" style="shape=tableRow;horizontal=0;startSize=0;swimlaneHead=0;swimlaneBody=0;fillColor=none;collapsible=0;dropTarget=0;points=[[0,0.5],[1,0.5]];portConstraint=eastwest;top=0;left=0;right=0;bottom=0;" vertex="1" parent="w_pM22GlNIXaSQ3IIwrL-99">
          <mxGeometry y="153" width="250" height="30" as="geometry" />
        </mxCell>
        <mxCell id="w_pM22GlNIXaSQ3IIwrL-117" style="shape=partialRectangle;connectable=0;fillColor=none;top=0;left=0;bottom=0;right=0;editable=1;overflow=hidden;" vertex="1" parent="w_pM22GlNIXaSQ3IIwrL-116">
          <mxGeometry width="40" height="30" as="geometry">
            <mxRectangle width="40" height="30" as="alternateBounds" />
          </mxGeometry>
        </mxCell>
        <mxCell id="w_pM22GlNIXaSQ3IIwrL-118" value="" style="shape=partialRectangle;connectable=0;fillColor=none;top=0;left=0;bottom=0;right=0;align=left;spacingLeft=6;overflow=hidden;" vertex="1" parent="w_pM22GlNIXaSQ3IIwrL-116">
          <mxGeometry x="40" width="120" height="30" as="geometry">
            <mxRectangle width="120" height="30" as="alternateBounds" />
          </mxGeometry>
        </mxCell>
        <mxCell id="w_pM22GlNIXaSQ3IIwrL-119" style="shape=partialRectangle;connectable=0;fillColor=none;top=0;left=0;bottom=0;right=0;align=left;spacingLeft=6;overflow=hidden;" vertex="1" parent="w_pM22GlNIXaSQ3IIwrL-116">
          <mxGeometry x="160" width="90" height="30" as="geometry">
            <mxRectangle width="90" height="30" as="alternateBounds" />
          </mxGeometry>
        </mxCell>
        <mxCell id="w_pM22GlNIXaSQ3IIwrL-120" style="shape=tableRow;horizontal=0;startSize=0;swimlaneHead=0;swimlaneBody=0;fillColor=none;collapsible=0;dropTarget=0;points=[[0,0.5],[1,0.5]];portConstraint=eastwest;top=0;left=0;right=0;bottom=0;" vertex="1" parent="w_pM22GlNIXaSQ3IIwrL-99">
          <mxGeometry y="183" width="250" height="30" as="geometry" />
        </mxCell>
        <mxCell id="w_pM22GlNIXaSQ3IIwrL-121" style="shape=partialRectangle;connectable=0;fillColor=none;top=0;left=0;bottom=0;right=0;editable=1;overflow=hidden;" vertex="1" parent="w_pM22GlNIXaSQ3IIwrL-120">
          <mxGeometry width="40" height="30" as="geometry">
            <mxRectangle width="40" height="30" as="alternateBounds" />
          </mxGeometry>
        </mxCell>
        <mxCell id="w_pM22GlNIXaSQ3IIwrL-122" value="" style="shape=partialRectangle;connectable=0;fillColor=none;top=0;left=0;bottom=0;right=0;align=left;spacingLeft=6;overflow=hidden;" vertex="1" parent="w_pM22GlNIXaSQ3IIwrL-120">
          <mxGeometry x="40" width="120" height="30" as="geometry">
            <mxRectangle width="120" height="30" as="alternateBounds" />
          </mxGeometry>
        </mxCell>
        <mxCell id="w_pM22GlNIXaSQ3IIwrL-123" style="shape=partialRectangle;connectable=0;fillColor=none;top=0;left=0;bottom=0;right=0;align=left;spacingLeft=6;overflow=hidden;" vertex="1" parent="w_pM22GlNIXaSQ3IIwrL-120">
          <mxGeometry x="160" width="90" height="30" as="geometry">
            <mxRectangle width="90" height="30" as="alternateBounds" />
          </mxGeometry>
        </mxCell>
        <mxCell id="w_pM22GlNIXaSQ3IIwrL-149" value="company.trip_recorded" style="shape=table;startSize=30;container=1;collapsible=1;childLayout=tableLayout;fixedRows=1;rowLines=1;fontStyle=0;align=center;resizeLast=1;strokeColor=#d6b656;fillColor=#fff2cc;swimlaneLine=1;columnLines=1;swimlaneHead=1;swimlaneBody=1;horizontal=1;connectable=1;allowArrows=1;dropTarget=1;editable=1;movable=1;resizable=1;rotatable=1;deletable=1;" vertex="1" parent="WIyWlLk6GJQsqaUBKTNV-1">
          <mxGeometry x="769" y="40" width="280" height="220" as="geometry">
            <mxRectangle x="90" y="60" width="60" height="30" as="alternateBounds" />
          </mxGeometry>
        </mxCell>
        <mxCell id="w_pM22GlNIXaSQ3IIwrL-150" value="" style="shape=tableRow;horizontal=0;startSize=0;swimlaneHead=0;swimlaneBody=0;fillColor=none;collapsible=0;dropTarget=0;points=[[0,0.5],[1,0.5]];portConstraint=eastwest;top=0;left=0;right=0;bottom=0;" vertex="1" parent="w_pM22GlNIXaSQ3IIwrL-149">
          <mxGeometry y="30" width="280" height="30" as="geometry" />
        </mxCell>
        <mxCell id="w_pM22GlNIXaSQ3IIwrL-151" value="PK" style="shape=partialRectangle;connectable=0;fillColor=none;top=0;left=0;bottom=0;right=0;fontStyle=0;overflow=hidden;" vertex="1" parent="w_pM22GlNIXaSQ3IIwrL-150">
          <mxGeometry width="40" height="30" as="geometry">
            <mxRectangle width="40" height="30" as="alternateBounds" />
          </mxGeometry>
        </mxCell>
        <mxCell id="w_pM22GlNIXaSQ3IIwrL-152" value="car_id" style="shape=partialRectangle;connectable=0;fillColor=none;top=0;left=0;bottom=0;right=0;align=left;spacingLeft=6;fontStyle=0;overflow=hidden;" vertex="1" parent="w_pM22GlNIXaSQ3IIwrL-150">
          <mxGeometry x="40" width="110" height="30" as="geometry">
            <mxRectangle width="110" height="30" as="alternateBounds" />
          </mxGeometry>
        </mxCell>
        <mxCell id="w_pM22GlNIXaSQ3IIwrL-153" value="character varying(50)" style="shape=partialRectangle;connectable=0;fillColor=none;top=0;left=0;bottom=0;right=0;align=left;spacingLeft=6;fontStyle=0;overflow=hidden;" vertex="1" parent="w_pM22GlNIXaSQ3IIwrL-150">
          <mxGeometry x="150" width="130" height="30" as="geometry">
            <mxRectangle width="130" height="30" as="alternateBounds" />
          </mxGeometry>
        </mxCell>
        <mxCell id="w_pM22GlNIXaSQ3IIwrL-154" value="" style="shape=tableRow;horizontal=0;startSize=0;swimlaneHead=0;swimlaneBody=0;fillColor=none;collapsible=0;dropTarget=0;points=[[0,0.5],[1,0.5]];portConstraint=eastwest;top=0;left=0;right=0;bottom=1;" vertex="1" parent="w_pM22GlNIXaSQ3IIwrL-149">
          <mxGeometry y="60" width="280" height="33" as="geometry" />
        </mxCell>
        <mxCell id="w_pM22GlNIXaSQ3IIwrL-155" value="" style="shape=partialRectangle;connectable=0;fillColor=none;top=0;left=0;bottom=0;right=0;fontStyle=0;overflow=hidden;strokeColor=inherit;" vertex="1" parent="w_pM22GlNIXaSQ3IIwrL-154">
          <mxGeometry width="40" height="33" as="geometry">
            <mxRectangle width="40" height="33" as="alternateBounds" />
          </mxGeometry>
        </mxCell>
        <mxCell id="w_pM22GlNIXaSQ3IIwrL-156" value="real_milage" style="shape=partialRectangle;connectable=0;fillColor=none;top=0;left=0;bottom=0;right=0;align=left;spacingLeft=6;fontStyle=0;overflow=hidden;strokeColor=inherit;" vertex="1" parent="w_pM22GlNIXaSQ3IIwrL-154">
          <mxGeometry x="40" width="110" height="33" as="geometry">
            <mxRectangle width="110" height="33" as="alternateBounds" />
          </mxGeometry>
        </mxCell>
        <mxCell id="w_pM22GlNIXaSQ3IIwrL-157" value="integer" style="shape=partialRectangle;connectable=0;fillColor=none;top=0;left=0;bottom=0;right=0;align=left;spacingLeft=6;fontStyle=0;overflow=hidden;strokeColor=inherit;" vertex="1" parent="w_pM22GlNIXaSQ3IIwrL-154">
          <mxGeometry x="150" width="130" height="33" as="geometry">
            <mxRectangle width="130" height="33" as="alternateBounds" />
          </mxGeometry>
        </mxCell>
        <mxCell id="w_pM22GlNIXaSQ3IIwrL-158" value="" style="shape=tableRow;horizontal=0;startSize=0;swimlaneHead=0;swimlaneBody=0;fillColor=none;collapsible=0;dropTarget=0;points=[[0,0.5],[1,0.5]];portConstraint=eastwest;top=0;left=0;right=0;bottom=0;" vertex="1" parent="w_pM22GlNIXaSQ3IIwrL-149">
          <mxGeometry y="93" width="280" height="30" as="geometry" />
        </mxCell>
        <mxCell id="w_pM22GlNIXaSQ3IIwrL-159" value="" style="shape=partialRectangle;connectable=0;fillColor=none;top=0;left=0;bottom=0;right=0;editable=1;overflow=hidden;strokeColor=inherit;" vertex="1" parent="w_pM22GlNIXaSQ3IIwrL-158">
          <mxGeometry width="40" height="30" as="geometry">
            <mxRectangle width="40" height="30" as="alternateBounds" />
          </mxGeometry>
        </mxCell>
        <mxCell id="w_pM22GlNIXaSQ3IIwrL-160" value="problems_record" style="shape=partialRectangle;connectable=0;fillColor=none;top=0;left=0;bottom=0;right=0;align=left;spacingLeft=6;overflow=hidden;" vertex="1" parent="w_pM22GlNIXaSQ3IIwrL-158">
          <mxGeometry x="40" width="110" height="30" as="geometry">
            <mxRectangle width="110" height="30" as="alternateBounds" />
          </mxGeometry>
        </mxCell>
        <mxCell id="w_pM22GlNIXaSQ3IIwrL-161" value="" style="shape=partialRectangle;connectable=0;fillColor=none;top=0;left=0;bottom=0;right=0;align=left;spacingLeft=6;overflow=hidden;" vertex="1" parent="w_pM22GlNIXaSQ3IIwrL-158">
          <mxGeometry x="150" width="130" height="30" as="geometry">
            <mxRectangle width="130" height="30" as="alternateBounds" />
          </mxGeometry>
        </mxCell>
        <mxCell id="w_pM22GlNIXaSQ3IIwrL-162" value="" style="shape=tableRow;horizontal=0;startSize=0;swimlaneHead=0;swimlaneBody=0;fillColor=none;collapsible=0;dropTarget=0;points=[[0,0.5],[1,0.5]];portConstraint=eastwest;top=0;left=0;right=0;bottom=0;" vertex="1" parent="w_pM22GlNIXaSQ3IIwrL-149">
          <mxGeometry y="123" width="280" height="30" as="geometry" />
        </mxCell>
        <mxCell id="w_pM22GlNIXaSQ3IIwrL-163" value="" style="shape=partialRectangle;connectable=0;fillColor=none;top=0;left=0;bottom=0;right=0;editable=1;overflow=hidden;" vertex="1" parent="w_pM22GlNIXaSQ3IIwrL-162">
          <mxGeometry width="40" height="30" as="geometry">
            <mxRectangle width="40" height="30" as="alternateBounds" />
          </mxGeometry>
        </mxCell>
        <mxCell id="w_pM22GlNIXaSQ3IIwrL-164" value="" style="shape=partialRectangle;connectable=0;fillColor=none;top=0;left=0;bottom=0;right=0;align=left;spacingLeft=6;overflow=hidden;" vertex="1" parent="w_pM22GlNIXaSQ3IIwrL-162">
          <mxGeometry x="40" width="110" height="30" as="geometry">
            <mxRectangle width="110" height="30" as="alternateBounds" />
          </mxGeometry>
        </mxCell>
        <mxCell id="w_pM22GlNIXaSQ3IIwrL-165" style="shape=partialRectangle;connectable=0;fillColor=none;top=0;left=0;bottom=0;right=0;align=left;spacingLeft=6;overflow=hidden;" vertex="1" parent="w_pM22GlNIXaSQ3IIwrL-162">
          <mxGeometry x="150" width="130" height="30" as="geometry">
            <mxRectangle width="130" height="30" as="alternateBounds" />
          </mxGeometry>
        </mxCell>
        <mxCell id="w_pM22GlNIXaSQ3IIwrL-166" style="shape=tableRow;horizontal=0;startSize=0;swimlaneHead=0;swimlaneBody=0;fillColor=none;collapsible=0;dropTarget=0;points=[[0,0.5],[1,0.5]];portConstraint=eastwest;top=0;left=0;right=0;bottom=0;" vertex="1" parent="w_pM22GlNIXaSQ3IIwrL-149">
          <mxGeometry y="153" width="280" height="37" as="geometry" />
        </mxCell>
        <mxCell id="w_pM22GlNIXaSQ3IIwrL-167" style="shape=partialRectangle;connectable=0;fillColor=none;top=0;left=0;bottom=0;right=0;editable=1;overflow=hidden;" vertex="1" parent="w_pM22GlNIXaSQ3IIwrL-166">
          <mxGeometry width="40" height="37" as="geometry">
            <mxRectangle width="40" height="37" as="alternateBounds" />
          </mxGeometry>
        </mxCell>
        <mxCell id="w_pM22GlNIXaSQ3IIwrL-168" value="" style="shape=partialRectangle;connectable=0;fillColor=none;top=0;left=0;bottom=0;right=0;align=left;spacingLeft=6;overflow=hidden;" vertex="1" parent="w_pM22GlNIXaSQ3IIwrL-166">
          <mxGeometry x="40" width="110" height="37" as="geometry">
            <mxRectangle width="110" height="37" as="alternateBounds" />
          </mxGeometry>
        </mxCell>
        <mxCell id="w_pM22GlNIXaSQ3IIwrL-169" style="shape=partialRectangle;connectable=0;fillColor=none;top=0;left=0;bottom=0;right=0;align=left;spacingLeft=6;overflow=hidden;" vertex="1" parent="w_pM22GlNIXaSQ3IIwrL-166">
          <mxGeometry x="150" width="130" height="37" as="geometry">
            <mxRectangle width="130" height="37" as="alternateBounds" />
          </mxGeometry>
        </mxCell>
        <mxCell id="w_pM22GlNIXaSQ3IIwrL-170" style="shape=tableRow;horizontal=0;startSize=0;swimlaneHead=0;swimlaneBody=0;fillColor=none;collapsible=0;dropTarget=0;points=[[0,0.5],[1,0.5]];portConstraint=eastwest;top=0;left=0;right=0;bottom=0;" vertex="1" parent="w_pM22GlNIXaSQ3IIwrL-149">
          <mxGeometry y="190" width="280" height="30" as="geometry" />
        </mxCell>
        <mxCell id="w_pM22GlNIXaSQ3IIwrL-171" style="shape=partialRectangle;connectable=0;fillColor=none;top=0;left=0;bottom=0;right=0;editable=1;overflow=hidden;" vertex="1" parent="w_pM22GlNIXaSQ3IIwrL-170">
          <mxGeometry width="40" height="30" as="geometry">
            <mxRectangle width="40" height="30" as="alternateBounds" />
          </mxGeometry>
        </mxCell>
        <mxCell id="w_pM22GlNIXaSQ3IIwrL-172" value="" style="shape=partialRectangle;connectable=0;fillColor=none;top=0;left=0;bottom=0;right=0;align=left;spacingLeft=6;overflow=hidden;" vertex="1" parent="w_pM22GlNIXaSQ3IIwrL-170">
          <mxGeometry x="40" width="110" height="30" as="geometry">
            <mxRectangle width="110" height="30" as="alternateBounds" />
          </mxGeometry>
        </mxCell>
        <mxCell id="w_pM22GlNIXaSQ3IIwrL-173" style="shape=partialRectangle;connectable=0;fillColor=none;top=0;left=0;bottom=0;right=0;align=left;spacingLeft=6;overflow=hidden;" vertex="1" parent="w_pM22GlNIXaSQ3IIwrL-170">
          <mxGeometry x="150" width="130" height="30" as="geometry">
            <mxRectangle width="130" height="30" as="alternateBounds" />
          </mxGeometry>
        </mxCell>
        <mxCell id="w_pM22GlNIXaSQ3IIwrL-174" value="company.car_service" style="shape=table;startSize=30;container=1;collapsible=1;childLayout=tableLayout;fixedRows=1;rowLines=1;fontStyle=0;align=center;resizeLast=1;strokeColor=#d6b656;fillColor=#fff2cc;swimlaneLine=1;columnLines=1;swimlaneHead=1;swimlaneBody=1;horizontal=1;connectable=1;allowArrows=1;dropTarget=1;editable=1;movable=1;resizable=1;rotatable=1;deletable=1;" vertex="1" parent="WIyWlLk6GJQsqaUBKTNV-1">
          <mxGeometry x="100" y="660" width="250" height="213" as="geometry">
            <mxRectangle x="90" y="60" width="60" height="30" as="alternateBounds" />
          </mxGeometry>
        </mxCell>
        <mxCell id="w_pM22GlNIXaSQ3IIwrL-175" value="" style="shape=tableRow;horizontal=0;startSize=0;swimlaneHead=0;swimlaneBody=0;fillColor=none;collapsible=0;dropTarget=0;points=[[0,0.5],[1,0.5]];portConstraint=eastwest;top=0;left=0;right=0;bottom=0;" vertex="1" parent="w_pM22GlNIXaSQ3IIwrL-174">
          <mxGeometry y="30" width="250" height="30" as="geometry" />
        </mxCell>
        <mxCell id="w_pM22GlNIXaSQ3IIwrL-176" value="FK" style="shape=partialRectangle;connectable=0;fillColor=none;top=0;left=0;bottom=0;right=0;fontStyle=0;overflow=hidden;" vertex="1" parent="w_pM22GlNIXaSQ3IIwrL-175">
          <mxGeometry width="40" height="30" as="geometry">
            <mxRectangle width="40" height="30" as="alternateBounds" />
          </mxGeometry>
        </mxCell>
        <mxCell id="w_pM22GlNIXaSQ3IIwrL-177" value="car_id" style="shape=partialRectangle;connectable=0;fillColor=none;top=0;left=0;bottom=0;right=0;align=left;spacingLeft=6;fontStyle=0;overflow=hidden;" vertex="1" parent="w_pM22GlNIXaSQ3IIwrL-175">
          <mxGeometry x="40" width="160" height="30" as="geometry">
            <mxRectangle width="160" height="30" as="alternateBounds" />
          </mxGeometry>
        </mxCell>
        <mxCell id="w_pM22GlNIXaSQ3IIwrL-178" value="integer" style="shape=partialRectangle;connectable=0;fillColor=none;top=0;left=0;bottom=0;right=0;align=left;spacingLeft=6;fontStyle=0;overflow=hidden;" vertex="1" parent="w_pM22GlNIXaSQ3IIwrL-175">
          <mxGeometry x="200" width="50" height="30" as="geometry">
            <mxRectangle width="50" height="30" as="alternateBounds" />
          </mxGeometry>
        </mxCell>
        <mxCell id="w_pM22GlNIXaSQ3IIwrL-179" value="" style="shape=tableRow;horizontal=0;startSize=0;swimlaneHead=0;swimlaneBody=0;fillColor=none;collapsible=0;dropTarget=0;points=[[0,0.5],[1,0.5]];portConstraint=eastwest;top=0;left=0;right=0;bottom=1;" vertex="1" parent="w_pM22GlNIXaSQ3IIwrL-174">
          <mxGeometry y="60" width="250" height="33" as="geometry" />
        </mxCell>
        <mxCell id="w_pM22GlNIXaSQ3IIwrL-180" value="FK" style="shape=partialRectangle;connectable=0;fillColor=none;top=0;left=0;bottom=0;right=0;fontStyle=0;overflow=hidden;strokeColor=inherit;" vertex="1" parent="w_pM22GlNIXaSQ3IIwrL-179">
          <mxGeometry width="40" height="33" as="geometry">
            <mxRectangle width="40" height="33" as="alternateBounds" />
          </mxGeometry>
        </mxCell>
        <mxCell id="w_pM22GlNIXaSQ3IIwrL-181" value="car_production_number" style="shape=partialRectangle;connectable=0;fillColor=none;top=0;left=0;bottom=0;right=0;align=left;spacingLeft=6;fontStyle=0;overflow=hidden;strokeColor=inherit;" vertex="1" parent="w_pM22GlNIXaSQ3IIwrL-179">
          <mxGeometry x="40" width="160" height="33" as="geometry">
            <mxRectangle width="160" height="33" as="alternateBounds" />
          </mxGeometry>
        </mxCell>
        <mxCell id="w_pM22GlNIXaSQ3IIwrL-182" value="" style="shape=partialRectangle;connectable=0;fillColor=none;top=0;left=0;bottom=0;right=0;align=left;spacingLeft=6;fontStyle=0;overflow=hidden;strokeColor=inherit;" vertex="1" parent="w_pM22GlNIXaSQ3IIwrL-179">
          <mxGeometry x="200" width="50" height="33" as="geometry">
            <mxRectangle width="50" height="33" as="alternateBounds" />
          </mxGeometry>
        </mxCell>
        <mxCell id="w_pM22GlNIXaSQ3IIwrL-183" value="" style="shape=tableRow;horizontal=0;startSize=0;swimlaneHead=0;swimlaneBody=0;fillColor=none;collapsible=0;dropTarget=0;points=[[0,0.5],[1,0.5]];portConstraint=eastwest;top=0;left=0;right=0;bottom=0;" vertex="1" parent="w_pM22GlNIXaSQ3IIwrL-174">
          <mxGeometry y="93" width="250" height="30" as="geometry" />
        </mxCell>
        <mxCell id="w_pM22GlNIXaSQ3IIwrL-184" value="FK" style="shape=partialRectangle;connectable=0;fillColor=none;top=0;left=0;bottom=0;right=0;editable=1;overflow=hidden;strokeColor=inherit;" vertex="1" parent="w_pM22GlNIXaSQ3IIwrL-183">
          <mxGeometry width="40" height="30" as="geometry">
            <mxRectangle width="40" height="30" as="alternateBounds" />
          </mxGeometry>
        </mxCell>
        <mxCell id="w_pM22GlNIXaSQ3IIwrL-185" value="model_registration_number" style="shape=partialRectangle;connectable=0;fillColor=none;top=0;left=0;bottom=0;right=0;align=left;spacingLeft=6;overflow=hidden;" vertex="1" parent="w_pM22GlNIXaSQ3IIwrL-183">
          <mxGeometry x="40" width="160" height="30" as="geometry">
            <mxRectangle width="160" height="30" as="alternateBounds" />
          </mxGeometry>
        </mxCell>
        <mxCell id="w_pM22GlNIXaSQ3IIwrL-186" value="" style="shape=partialRectangle;connectable=0;fillColor=none;top=0;left=0;bottom=0;right=0;align=left;spacingLeft=6;overflow=hidden;" vertex="1" parent="w_pM22GlNIXaSQ3IIwrL-183">
          <mxGeometry x="200" width="50" height="30" as="geometry">
            <mxRectangle width="50" height="30" as="alternateBounds" />
          </mxGeometry>
        </mxCell>
        <mxCell id="w_pM22GlNIXaSQ3IIwrL-187" value="" style="shape=tableRow;horizontal=0;startSize=0;swimlaneHead=0;swimlaneBody=0;fillColor=none;collapsible=0;dropTarget=0;points=[[0,0.5],[1,0.5]];portConstraint=eastwest;top=0;left=0;right=0;bottom=0;" vertex="1" parent="w_pM22GlNIXaSQ3IIwrL-174">
          <mxGeometry y="123" width="250" height="30" as="geometry" />
        </mxCell>
        <mxCell id="w_pM22GlNIXaSQ3IIwrL-188" value="PK" style="shape=partialRectangle;connectable=0;fillColor=none;top=0;left=0;bottom=0;right=0;editable=1;overflow=hidden;" vertex="1" parent="w_pM22GlNIXaSQ3IIwrL-187">
          <mxGeometry width="40" height="30" as="geometry">
            <mxRectangle width="40" height="30" as="alternateBounds" />
          </mxGeometry>
        </mxCell>
        <mxCell id="w_pM22GlNIXaSQ3IIwrL-189" value="is_car_needs_service" style="shape=partialRectangle;connectable=0;fillColor=none;top=0;left=0;bottom=0;right=0;align=left;spacingLeft=6;overflow=hidden;" vertex="1" parent="w_pM22GlNIXaSQ3IIwrL-187">
          <mxGeometry x="40" width="160" height="30" as="geometry">
            <mxRectangle width="160" height="30" as="alternateBounds" />
          </mxGeometry>
        </mxCell>
        <mxCell id="w_pM22GlNIXaSQ3IIwrL-190" value="boolean" style="shape=partialRectangle;connectable=0;fillColor=none;top=0;left=0;bottom=0;right=0;align=left;spacingLeft=6;overflow=hidden;" vertex="1" parent="w_pM22GlNIXaSQ3IIwrL-187">
          <mxGeometry x="200" width="50" height="30" as="geometry">
            <mxRectangle width="50" height="30" as="alternateBounds" />
          </mxGeometry>
        </mxCell>
        <mxCell id="w_pM22GlNIXaSQ3IIwrL-191" style="shape=tableRow;horizontal=0;startSize=0;swimlaneHead=0;swimlaneBody=0;fillColor=none;collapsible=0;dropTarget=0;points=[[0,0.5],[1,0.5]];portConstraint=eastwest;top=0;left=0;right=0;bottom=0;" vertex="1" parent="w_pM22GlNIXaSQ3IIwrL-174">
          <mxGeometry y="153" width="250" height="30" as="geometry" />
        </mxCell>
        <mxCell id="w_pM22GlNIXaSQ3IIwrL-192" style="shape=partialRectangle;connectable=0;fillColor=none;top=0;left=0;bottom=0;right=0;editable=1;overflow=hidden;" vertex="1" parent="w_pM22GlNIXaSQ3IIwrL-191">
          <mxGeometry width="40" height="30" as="geometry">
            <mxRectangle width="40" height="30" as="alternateBounds" />
          </mxGeometry>
        </mxCell>
        <mxCell id="w_pM22GlNIXaSQ3IIwrL-193" style="shape=partialRectangle;connectable=0;fillColor=none;top=0;left=0;bottom=0;right=0;align=left;spacingLeft=6;overflow=hidden;" vertex="1" parent="w_pM22GlNIXaSQ3IIwrL-191">
          <mxGeometry x="40" width="160" height="30" as="geometry">
            <mxRectangle width="160" height="30" as="alternateBounds" />
          </mxGeometry>
        </mxCell>
        <mxCell id="w_pM22GlNIXaSQ3IIwrL-194" style="shape=partialRectangle;connectable=0;fillColor=none;top=0;left=0;bottom=0;right=0;align=left;spacingLeft=6;overflow=hidden;" vertex="1" parent="w_pM22GlNIXaSQ3IIwrL-191">
          <mxGeometry x="200" width="50" height="30" as="geometry">
            <mxRectangle width="50" height="30" as="alternateBounds" />
          </mxGeometry>
        </mxCell>
        <mxCell id="w_pM22GlNIXaSQ3IIwrL-195" style="shape=tableRow;horizontal=0;startSize=0;swimlaneHead=0;swimlaneBody=0;fillColor=none;collapsible=0;dropTarget=0;points=[[0,0.5],[1,0.5]];portConstraint=eastwest;top=0;left=0;right=0;bottom=0;" vertex="1" parent="w_pM22GlNIXaSQ3IIwrL-174">
          <mxGeometry y="183" width="250" height="30" as="geometry" />
        </mxCell>
        <mxCell id="w_pM22GlNIXaSQ3IIwrL-196" style="shape=partialRectangle;connectable=0;fillColor=none;top=0;left=0;bottom=0;right=0;editable=1;overflow=hidden;" vertex="1" parent="w_pM22GlNIXaSQ3IIwrL-195">
          <mxGeometry width="40" height="30" as="geometry">
            <mxRectangle width="40" height="30" as="alternateBounds" />
          </mxGeometry>
        </mxCell>
        <mxCell id="w_pM22GlNIXaSQ3IIwrL-197" style="shape=partialRectangle;connectable=0;fillColor=none;top=0;left=0;bottom=0;right=0;align=left;spacingLeft=6;overflow=hidden;" vertex="1" parent="w_pM22GlNIXaSQ3IIwrL-195">
          <mxGeometry x="40" width="160" height="30" as="geometry">
            <mxRectangle width="160" height="30" as="alternateBounds" />
          </mxGeometry>
        </mxCell>
        <mxCell id="w_pM22GlNIXaSQ3IIwrL-198" style="shape=partialRectangle;connectable=0;fillColor=none;top=0;left=0;bottom=0;right=0;align=left;spacingLeft=6;overflow=hidden;" vertex="1" parent="w_pM22GlNIXaSQ3IIwrL-195">
          <mxGeometry x="200" width="50" height="30" as="geometry">
            <mxRectangle width="50" height="30" as="alternateBounds" />
          </mxGeometry>
        </mxCell>
        <mxCell id="w_pM22GlNIXaSQ3IIwrL-202" value="" style="shape=partialRectangle;connectable=0;fillColor=none;top=0;left=0;bottom=0;right=0;align=left;spacingLeft=6;fontStyle=0;overflow=hidden;strokeColor=inherit;" vertex="1" parent="WIyWlLk6GJQsqaUBKTNV-1">
          <mxGeometry x="490" y="227" width="160" height="33" as="geometry">
            <mxRectangle width="160" height="33" as="alternateBounds" />
          </mxGeometry>
        </mxCell>
        <mxCell id="w_pM22GlNIXaSQ3IIwrL-207" value="" style="edgeStyle=entityRelationEdgeStyle;fontSize=12;html=1;endArrow=ERone;endFill=0;rounded=0;startArrow=ERmany;startFill=0;exitX=1;exitY=0.5;exitDx=0;exitDy=0;entryX=0;entryY=0.5;entryDx=0;entryDy=0;" edge="1" parent="WIyWlLk6GJQsqaUBKTNV-1" source="w_pM22GlNIXaSQ3IIwrL-120" target="w_pM22GlNIXaSQ3IIwrL-70">
          <mxGeometry width="100" height="100" relative="1" as="geometry">
            <mxPoint x="520" y="180" as="sourcePoint" />
            <mxPoint x="754" y="496" as="targetPoint" />
          </mxGeometry>
        </mxCell>
        <mxCell id="w_pM22GlNIXaSQ3IIwrL-208" value="Do registration" style="edgeLabel;html=1;align=center;verticalAlign=middle;resizable=0;points=[];" vertex="1" connectable="0" parent="w_pM22GlNIXaSQ3IIwrL-207">
          <mxGeometry x="-0.0167" y="3" relative="1" as="geometry">
            <mxPoint as="offset" />
          </mxGeometry>
        </mxCell>
        <mxCell id="w_pM22GlNIXaSQ3IIwrL-234" value="company.department_data" style="shape=table;startSize=30;container=1;collapsible=1;childLayout=tableLayout;fixedRows=1;rowLines=1;fontStyle=0;align=center;resizeLast=1;strokeColor=#d6b656;fillColor=#fff2cc;swimlaneLine=1;columnLines=1;swimlaneHead=1;swimlaneBody=1;horizontal=1;connectable=1;allowArrows=1;dropTarget=1;editable=1;movable=1;resizable=1;rotatable=1;deletable=1;" vertex="1" parent="WIyWlLk6GJQsqaUBKTNV-1">
          <mxGeometry x="1230" y="510" width="250" height="213" as="geometry">
            <mxRectangle x="90" y="60" width="60" height="30" as="alternateBounds" />
          </mxGeometry>
        </mxCell>
        <mxCell id="w_pM22GlNIXaSQ3IIwrL-235" value="" style="shape=tableRow;horizontal=0;startSize=0;swimlaneHead=0;swimlaneBody=0;fillColor=none;collapsible=0;dropTarget=0;points=[[0,0.5],[1,0.5]];portConstraint=eastwest;top=0;left=0;right=0;bottom=0;" vertex="1" parent="w_pM22GlNIXaSQ3IIwrL-234">
          <mxGeometry y="30" width="250" height="30" as="geometry" />
        </mxCell>
        <mxCell id="w_pM22GlNIXaSQ3IIwrL-236" value="PK" style="shape=partialRectangle;connectable=0;fillColor=none;top=0;left=0;bottom=0;right=0;fontStyle=0;overflow=hidden;" vertex="1" parent="w_pM22GlNIXaSQ3IIwrL-235">
          <mxGeometry width="40" height="30" as="geometry">
            <mxRectangle width="40" height="30" as="alternateBounds" />
          </mxGeometry>
        </mxCell>
        <mxCell id="w_pM22GlNIXaSQ3IIwrL-237" value="department_id" style="shape=partialRectangle;connectable=0;fillColor=none;top=0;left=0;bottom=0;right=0;align=left;spacingLeft=6;fontStyle=0;overflow=hidden;" vertex="1" parent="w_pM22GlNIXaSQ3IIwrL-235">
          <mxGeometry x="40" width="160" height="30" as="geometry">
            <mxRectangle width="160" height="30" as="alternateBounds" />
          </mxGeometry>
        </mxCell>
        <mxCell id="w_pM22GlNIXaSQ3IIwrL-238" value="integer" style="shape=partialRectangle;connectable=0;fillColor=none;top=0;left=0;bottom=0;right=0;align=left;spacingLeft=6;fontStyle=0;overflow=hidden;" vertex="1" parent="w_pM22GlNIXaSQ3IIwrL-235">
          <mxGeometry x="200" width="50" height="30" as="geometry">
            <mxRectangle width="50" height="30" as="alternateBounds" />
          </mxGeometry>
        </mxCell>
        <mxCell id="w_pM22GlNIXaSQ3IIwrL-239" value="" style="shape=tableRow;horizontal=0;startSize=0;swimlaneHead=0;swimlaneBody=0;fillColor=none;collapsible=0;dropTarget=0;points=[[0,0.5],[1,0.5]];portConstraint=eastwest;top=0;left=0;right=0;bottom=1;" vertex="1" parent="w_pM22GlNIXaSQ3IIwrL-234">
          <mxGeometry y="60" width="250" height="33" as="geometry" />
        </mxCell>
        <mxCell id="w_pM22GlNIXaSQ3IIwrL-240" value="PK" style="shape=partialRectangle;connectable=0;fillColor=none;top=0;left=0;bottom=0;right=0;fontStyle=0;overflow=hidden;strokeColor=inherit;" vertex="1" parent="w_pM22GlNIXaSQ3IIwrL-239">
          <mxGeometry width="40" height="33" as="geometry">
            <mxRectangle width="40" height="33" as="alternateBounds" />
          </mxGeometry>
        </mxCell>
        <mxCell id="w_pM22GlNIXaSQ3IIwrL-241" value="department_name" style="shape=partialRectangle;connectable=0;fillColor=none;top=0;left=0;bottom=0;right=0;align=left;spacingLeft=6;fontStyle=0;overflow=hidden;strokeColor=inherit;" vertex="1" parent="w_pM22GlNIXaSQ3IIwrL-239">
          <mxGeometry x="40" width="160" height="33" as="geometry">
            <mxRectangle width="160" height="33" as="alternateBounds" />
          </mxGeometry>
        </mxCell>
        <mxCell id="w_pM22GlNIXaSQ3IIwrL-242" value="" style="shape=partialRectangle;connectable=0;fillColor=none;top=0;left=0;bottom=0;right=0;align=left;spacingLeft=6;fontStyle=0;overflow=hidden;strokeColor=inherit;" vertex="1" parent="w_pM22GlNIXaSQ3IIwrL-239">
          <mxGeometry x="200" width="50" height="33" as="geometry">
            <mxRectangle width="50" height="33" as="alternateBounds" />
          </mxGeometry>
        </mxCell>
        <mxCell id="w_pM22GlNIXaSQ3IIwrL-243" value="" style="shape=tableRow;horizontal=0;startSize=0;swimlaneHead=0;swimlaneBody=0;fillColor=none;collapsible=0;dropTarget=0;points=[[0,0.5],[1,0.5]];portConstraint=eastwest;top=0;left=0;right=0;bottom=0;" vertex="1" parent="w_pM22GlNIXaSQ3IIwrL-234">
          <mxGeometry y="93" width="250" height="30" as="geometry" />
        </mxCell>
        <mxCell id="w_pM22GlNIXaSQ3IIwrL-244" value="FK" style="shape=partialRectangle;connectable=0;fillColor=none;top=0;left=0;bottom=0;right=0;editable=1;overflow=hidden;strokeColor=inherit;" vertex="1" parent="w_pM22GlNIXaSQ3IIwrL-243">
          <mxGeometry width="40" height="30" as="geometry">
            <mxRectangle width="40" height="30" as="alternateBounds" />
          </mxGeometry>
        </mxCell>
        <mxCell id="w_pM22GlNIXaSQ3IIwrL-245" value="manager_id" style="shape=partialRectangle;connectable=0;fillColor=none;top=0;left=0;bottom=0;right=0;align=left;spacingLeft=6;overflow=hidden;" vertex="1" parent="w_pM22GlNIXaSQ3IIwrL-243">
          <mxGeometry x="40" width="160" height="30" as="geometry">
            <mxRectangle width="160" height="30" as="alternateBounds" />
          </mxGeometry>
        </mxCell>
        <mxCell id="w_pM22GlNIXaSQ3IIwrL-246" value="" style="shape=partialRectangle;connectable=0;fillColor=none;top=0;left=0;bottom=0;right=0;align=left;spacingLeft=6;overflow=hidden;" vertex="1" parent="w_pM22GlNIXaSQ3IIwrL-243">
          <mxGeometry x="200" width="50" height="30" as="geometry">
            <mxRectangle width="50" height="30" as="alternateBounds" />
          </mxGeometry>
        </mxCell>
        <mxCell id="w_pM22GlNIXaSQ3IIwrL-247" value="" style="shape=tableRow;horizontal=0;startSize=0;swimlaneHead=0;swimlaneBody=0;fillColor=none;collapsible=0;dropTarget=0;points=[[0,0.5],[1,0.5]];portConstraint=eastwest;top=0;left=0;right=0;bottom=0;" vertex="1" parent="w_pM22GlNIXaSQ3IIwrL-234">
          <mxGeometry y="123" width="250" height="30" as="geometry" />
        </mxCell>
        <mxCell id="w_pM22GlNIXaSQ3IIwrL-248" value="FK" style="shape=partialRectangle;connectable=0;fillColor=none;top=0;left=0;bottom=0;right=0;editable=1;overflow=hidden;" vertex="1" parent="w_pM22GlNIXaSQ3IIwrL-247">
          <mxGeometry width="40" height="30" as="geometry">
            <mxRectangle width="40" height="30" as="alternateBounds" />
          </mxGeometry>
        </mxCell>
        <mxCell id="w_pM22GlNIXaSQ3IIwrL-249" value="employee_id" style="shape=partialRectangle;connectable=0;fillColor=none;top=0;left=0;bottom=0;right=0;align=left;spacingLeft=6;overflow=hidden;" vertex="1" parent="w_pM22GlNIXaSQ3IIwrL-247">
          <mxGeometry x="40" width="160" height="30" as="geometry">
            <mxRectangle width="160" height="30" as="alternateBounds" />
          </mxGeometry>
        </mxCell>
        <mxCell id="w_pM22GlNIXaSQ3IIwrL-250" style="shape=partialRectangle;connectable=0;fillColor=none;top=0;left=0;bottom=0;right=0;align=left;spacingLeft=6;overflow=hidden;" vertex="1" parent="w_pM22GlNIXaSQ3IIwrL-247">
          <mxGeometry x="200" width="50" height="30" as="geometry">
            <mxRectangle width="50" height="30" as="alternateBounds" />
          </mxGeometry>
        </mxCell>
        <mxCell id="w_pM22GlNIXaSQ3IIwrL-251" style="shape=tableRow;horizontal=0;startSize=0;swimlaneHead=0;swimlaneBody=0;fillColor=none;collapsible=0;dropTarget=0;points=[[0,0.5],[1,0.5]];portConstraint=eastwest;top=0;left=0;right=0;bottom=0;" vertex="1" parent="w_pM22GlNIXaSQ3IIwrL-234">
          <mxGeometry y="153" width="250" height="30" as="geometry" />
        </mxCell>
        <mxCell id="w_pM22GlNIXaSQ3IIwrL-252" style="shape=partialRectangle;connectable=0;fillColor=none;top=0;left=0;bottom=0;right=0;editable=1;overflow=hidden;" vertex="1" parent="w_pM22GlNIXaSQ3IIwrL-251">
          <mxGeometry width="40" height="30" as="geometry">
            <mxRectangle width="40" height="30" as="alternateBounds" />
          </mxGeometry>
        </mxCell>
        <mxCell id="w_pM22GlNIXaSQ3IIwrL-253" style="shape=partialRectangle;connectable=0;fillColor=none;top=0;left=0;bottom=0;right=0;align=left;spacingLeft=6;overflow=hidden;" vertex="1" parent="w_pM22GlNIXaSQ3IIwrL-251">
          <mxGeometry x="40" width="160" height="30" as="geometry">
            <mxRectangle width="160" height="30" as="alternateBounds" />
          </mxGeometry>
        </mxCell>
        <mxCell id="w_pM22GlNIXaSQ3IIwrL-254" style="shape=partialRectangle;connectable=0;fillColor=none;top=0;left=0;bottom=0;right=0;align=left;spacingLeft=6;overflow=hidden;" vertex="1" parent="w_pM22GlNIXaSQ3IIwrL-251">
          <mxGeometry x="200" width="50" height="30" as="geometry">
            <mxRectangle width="50" height="30" as="alternateBounds" />
          </mxGeometry>
        </mxCell>
        <mxCell id="w_pM22GlNIXaSQ3IIwrL-255" style="shape=tableRow;horizontal=0;startSize=0;swimlaneHead=0;swimlaneBody=0;fillColor=none;collapsible=0;dropTarget=0;points=[[0,0.5],[1,0.5]];portConstraint=eastwest;top=0;left=0;right=0;bottom=0;" vertex="1" parent="w_pM22GlNIXaSQ3IIwrL-234">
          <mxGeometry y="183" width="250" height="30" as="geometry" />
        </mxCell>
        <mxCell id="w_pM22GlNIXaSQ3IIwrL-256" style="shape=partialRectangle;connectable=0;fillColor=none;top=0;left=0;bottom=0;right=0;editable=1;overflow=hidden;" vertex="1" parent="w_pM22GlNIXaSQ3IIwrL-255">
          <mxGeometry width="40" height="30" as="geometry">
            <mxRectangle width="40" height="30" as="alternateBounds" />
          </mxGeometry>
        </mxCell>
        <mxCell id="w_pM22GlNIXaSQ3IIwrL-257" style="shape=partialRectangle;connectable=0;fillColor=none;top=0;left=0;bottom=0;right=0;align=left;spacingLeft=6;overflow=hidden;" vertex="1" parent="w_pM22GlNIXaSQ3IIwrL-255">
          <mxGeometry x="40" width="160" height="30" as="geometry">
            <mxRectangle width="160" height="30" as="alternateBounds" />
          </mxGeometry>
        </mxCell>
        <mxCell id="w_pM22GlNIXaSQ3IIwrL-258" style="shape=partialRectangle;connectable=0;fillColor=none;top=0;left=0;bottom=0;right=0;align=left;spacingLeft=6;overflow=hidden;" vertex="1" parent="w_pM22GlNIXaSQ3IIwrL-255">
          <mxGeometry x="200" width="50" height="30" as="geometry">
            <mxRectangle width="50" height="30" as="alternateBounds" />
          </mxGeometry>
        </mxCell>
        <mxCell id="w_pM22GlNIXaSQ3IIwrL-271" value="company.fleet_manager_data" style="shape=table;startSize=30;container=1;collapsible=1;childLayout=tableLayout;fixedRows=1;rowLines=1;fontStyle=0;align=center;resizeLast=1;strokeColor=#d6b656;fillColor=#fff2cc;swimlaneLine=1;columnLines=1;swimlaneHead=1;swimlaneBody=1;horizontal=1;connectable=1;allowArrows=1;dropTarget=1;editable=1;movable=1;resizable=1;rotatable=1;deletable=1;" vertex="1" parent="WIyWlLk6GJQsqaUBKTNV-1">
          <mxGeometry x="610" y="660" width="250" height="213" as="geometry">
            <mxRectangle x="90" y="60" width="60" height="30" as="alternateBounds" />
          </mxGeometry>
        </mxCell>
        <mxCell id="w_pM22GlNIXaSQ3IIwrL-272" value="" style="shape=tableRow;horizontal=0;startSize=0;swimlaneHead=0;swimlaneBody=0;fillColor=none;collapsible=0;dropTarget=0;points=[[0,0.5],[1,0.5]];portConstraint=eastwest;top=0;left=0;right=0;bottom=0;" vertex="1" parent="w_pM22GlNIXaSQ3IIwrL-271">
          <mxGeometry y="30" width="250" height="30" as="geometry" />
        </mxCell>
        <mxCell id="w_pM22GlNIXaSQ3IIwrL-273" value="PK" style="shape=partialRectangle;connectable=0;fillColor=none;top=0;left=0;bottom=0;right=0;fontStyle=0;overflow=hidden;" vertex="1" parent="w_pM22GlNIXaSQ3IIwrL-272">
          <mxGeometry width="40" height="30" as="geometry">
            <mxRectangle width="40" height="30" as="alternateBounds" />
          </mxGeometry>
        </mxCell>
        <mxCell id="w_pM22GlNIXaSQ3IIwrL-274" value="manager_id" style="shape=partialRectangle;connectable=0;fillColor=none;top=0;left=0;bottom=0;right=0;align=left;spacingLeft=6;fontStyle=0;overflow=hidden;" vertex="1" parent="w_pM22GlNIXaSQ3IIwrL-272">
          <mxGeometry x="40" width="160" height="30" as="geometry">
            <mxRectangle width="160" height="30" as="alternateBounds" />
          </mxGeometry>
        </mxCell>
        <mxCell id="w_pM22GlNIXaSQ3IIwrL-275" value="integer" style="shape=partialRectangle;connectable=0;fillColor=none;top=0;left=0;bottom=0;right=0;align=left;spacingLeft=6;fontStyle=0;overflow=hidden;" vertex="1" parent="w_pM22GlNIXaSQ3IIwrL-272">
          <mxGeometry x="200" width="50" height="30" as="geometry">
            <mxRectangle width="50" height="30" as="alternateBounds" />
          </mxGeometry>
        </mxCell>
        <mxCell id="w_pM22GlNIXaSQ3IIwrL-276" value="" style="shape=tableRow;horizontal=0;startSize=0;swimlaneHead=0;swimlaneBody=0;fillColor=none;collapsible=0;dropTarget=0;points=[[0,0.5],[1,0.5]];portConstraint=eastwest;top=0;left=0;right=0;bottom=1;" vertex="1" parent="w_pM22GlNIXaSQ3IIwrL-271">
          <mxGeometry y="60" width="250" height="33" as="geometry" />
        </mxCell>
        <mxCell id="w_pM22GlNIXaSQ3IIwrL-277" value="PK" style="shape=partialRectangle;connectable=0;fillColor=none;top=0;left=0;bottom=0;right=0;fontStyle=0;overflow=hidden;strokeColor=inherit;" vertex="1" parent="w_pM22GlNIXaSQ3IIwrL-276">
          <mxGeometry width="40" height="33" as="geometry">
            <mxRectangle width="40" height="33" as="alternateBounds" />
          </mxGeometry>
        </mxCell>
        <mxCell id="w_pM22GlNIXaSQ3IIwrL-278" value="manager_name" style="shape=partialRectangle;connectable=0;fillColor=none;top=0;left=0;bottom=0;right=0;align=left;spacingLeft=6;fontStyle=0;overflow=hidden;strokeColor=inherit;" vertex="1" parent="w_pM22GlNIXaSQ3IIwrL-276">
          <mxGeometry x="40" width="160" height="33" as="geometry">
            <mxRectangle width="160" height="33" as="alternateBounds" />
          </mxGeometry>
        </mxCell>
        <mxCell id="w_pM22GlNIXaSQ3IIwrL-279" value="" style="shape=partialRectangle;connectable=0;fillColor=none;top=0;left=0;bottom=0;right=0;align=left;spacingLeft=6;fontStyle=0;overflow=hidden;strokeColor=inherit;" vertex="1" parent="w_pM22GlNIXaSQ3IIwrL-276">
          <mxGeometry x="200" width="50" height="33" as="geometry">
            <mxRectangle width="50" height="33" as="alternateBounds" />
          </mxGeometry>
        </mxCell>
        <mxCell id="w_pM22GlNIXaSQ3IIwrL-280" value="" style="shape=tableRow;horizontal=0;startSize=0;swimlaneHead=0;swimlaneBody=0;fillColor=none;collapsible=0;dropTarget=0;points=[[0,0.5],[1,0.5]];portConstraint=eastwest;top=0;left=0;right=0;bottom=0;" vertex="1" parent="w_pM22GlNIXaSQ3IIwrL-271">
          <mxGeometry y="93" width="250" height="30" as="geometry" />
        </mxCell>
        <mxCell id="w_pM22GlNIXaSQ3IIwrL-281" value="FK" style="shape=partialRectangle;connectable=0;fillColor=none;top=0;left=0;bottom=0;right=0;editable=1;overflow=hidden;strokeColor=inherit;" vertex="1" parent="w_pM22GlNIXaSQ3IIwrL-280">
          <mxGeometry width="40" height="30" as="geometry">
            <mxRectangle width="40" height="30" as="alternateBounds" />
          </mxGeometry>
        </mxCell>
        <mxCell id="w_pM22GlNIXaSQ3IIwrL-282" value="department_id" style="shape=partialRectangle;connectable=0;fillColor=none;top=0;left=0;bottom=0;right=0;align=left;spacingLeft=6;overflow=hidden;" vertex="1" parent="w_pM22GlNIXaSQ3IIwrL-280">
          <mxGeometry x="40" width="160" height="30" as="geometry">
            <mxRectangle width="160" height="30" as="alternateBounds" />
          </mxGeometry>
        </mxCell>
        <mxCell id="w_pM22GlNIXaSQ3IIwrL-283" value="" style="shape=partialRectangle;connectable=0;fillColor=none;top=0;left=0;bottom=0;right=0;align=left;spacingLeft=6;overflow=hidden;" vertex="1" parent="w_pM22GlNIXaSQ3IIwrL-280">
          <mxGeometry x="200" width="50" height="30" as="geometry">
            <mxRectangle width="50" height="30" as="alternateBounds" />
          </mxGeometry>
        </mxCell>
        <mxCell id="w_pM22GlNIXaSQ3IIwrL-284" value="" style="shape=tableRow;horizontal=0;startSize=0;swimlaneHead=0;swimlaneBody=0;fillColor=none;collapsible=0;dropTarget=0;points=[[0,0.5],[1,0.5]];portConstraint=eastwest;top=0;left=0;right=0;bottom=0;" vertex="1" parent="w_pM22GlNIXaSQ3IIwrL-271">
          <mxGeometry y="123" width="250" height="30" as="geometry" />
        </mxCell>
        <mxCell id="w_pM22GlNIXaSQ3IIwrL-285" value="FK" style="shape=partialRectangle;connectable=0;fillColor=none;top=0;left=0;bottom=0;right=0;editable=1;overflow=hidden;" vertex="1" parent="w_pM22GlNIXaSQ3IIwrL-284">
          <mxGeometry width="40" height="30" as="geometry">
            <mxRectangle width="40" height="30" as="alternateBounds" />
          </mxGeometry>
        </mxCell>
        <mxCell id="w_pM22GlNIXaSQ3IIwrL-286" value="is_car_needs_service" style="shape=partialRectangle;connectable=0;fillColor=none;top=0;left=0;bottom=0;right=0;align=left;spacingLeft=6;overflow=hidden;" vertex="1" parent="w_pM22GlNIXaSQ3IIwrL-284">
          <mxGeometry x="40" width="160" height="30" as="geometry">
            <mxRectangle width="160" height="30" as="alternateBounds" />
          </mxGeometry>
        </mxCell>
        <mxCell id="w_pM22GlNIXaSQ3IIwrL-287" style="shape=partialRectangle;connectable=0;fillColor=none;top=0;left=0;bottom=0;right=0;align=left;spacingLeft=6;overflow=hidden;" vertex="1" parent="w_pM22GlNIXaSQ3IIwrL-284">
          <mxGeometry x="200" width="50" height="30" as="geometry">
            <mxRectangle width="50" height="30" as="alternateBounds" />
          </mxGeometry>
        </mxCell>
        <mxCell id="w_pM22GlNIXaSQ3IIwrL-288" style="shape=tableRow;horizontal=0;startSize=0;swimlaneHead=0;swimlaneBody=0;fillColor=none;collapsible=0;dropTarget=0;points=[[0,0.5],[1,0.5]];portConstraint=eastwest;top=0;left=0;right=0;bottom=0;" vertex="1" parent="w_pM22GlNIXaSQ3IIwrL-271">
          <mxGeometry y="153" width="250" height="30" as="geometry" />
        </mxCell>
        <mxCell id="w_pM22GlNIXaSQ3IIwrL-289" style="shape=partialRectangle;connectable=0;fillColor=none;top=0;left=0;bottom=0;right=0;editable=1;overflow=hidden;" vertex="1" parent="w_pM22GlNIXaSQ3IIwrL-288">
          <mxGeometry width="40" height="30" as="geometry">
            <mxRectangle width="40" height="30" as="alternateBounds" />
          </mxGeometry>
        </mxCell>
        <mxCell id="w_pM22GlNIXaSQ3IIwrL-290" style="shape=partialRectangle;connectable=0;fillColor=none;top=0;left=0;bottom=0;right=0;align=left;spacingLeft=6;overflow=hidden;" vertex="1" parent="w_pM22GlNIXaSQ3IIwrL-288">
          <mxGeometry x="40" width="160" height="30" as="geometry">
            <mxRectangle width="160" height="30" as="alternateBounds" />
          </mxGeometry>
        </mxCell>
        <mxCell id="w_pM22GlNIXaSQ3IIwrL-291" style="shape=partialRectangle;connectable=0;fillColor=none;top=0;left=0;bottom=0;right=0;align=left;spacingLeft=6;overflow=hidden;" vertex="1" parent="w_pM22GlNIXaSQ3IIwrL-288">
          <mxGeometry x="200" width="50" height="30" as="geometry">
            <mxRectangle width="50" height="30" as="alternateBounds" />
          </mxGeometry>
        </mxCell>
        <mxCell id="w_pM22GlNIXaSQ3IIwrL-292" style="shape=tableRow;horizontal=0;startSize=0;swimlaneHead=0;swimlaneBody=0;fillColor=none;collapsible=0;dropTarget=0;points=[[0,0.5],[1,0.5]];portConstraint=eastwest;top=0;left=0;right=0;bottom=0;" vertex="1" parent="w_pM22GlNIXaSQ3IIwrL-271">
          <mxGeometry y="183" width="250" height="30" as="geometry" />
        </mxCell>
        <mxCell id="w_pM22GlNIXaSQ3IIwrL-293" style="shape=partialRectangle;connectable=0;fillColor=none;top=0;left=0;bottom=0;right=0;editable=1;overflow=hidden;" vertex="1" parent="w_pM22GlNIXaSQ3IIwrL-292">
          <mxGeometry width="40" height="30" as="geometry">
            <mxRectangle width="40" height="30" as="alternateBounds" />
          </mxGeometry>
        </mxCell>
        <mxCell id="w_pM22GlNIXaSQ3IIwrL-294" style="shape=partialRectangle;connectable=0;fillColor=none;top=0;left=0;bottom=0;right=0;align=left;spacingLeft=6;overflow=hidden;" vertex="1" parent="w_pM22GlNIXaSQ3IIwrL-292">
          <mxGeometry x="40" width="160" height="30" as="geometry">
            <mxRectangle width="160" height="30" as="alternateBounds" />
          </mxGeometry>
        </mxCell>
        <mxCell id="w_pM22GlNIXaSQ3IIwrL-295" style="shape=partialRectangle;connectable=0;fillColor=none;top=0;left=0;bottom=0;right=0;align=left;spacingLeft=6;overflow=hidden;" vertex="1" parent="w_pM22GlNIXaSQ3IIwrL-292">
          <mxGeometry x="200" width="50" height="30" as="geometry">
            <mxRectangle width="50" height="30" as="alternateBounds" />
          </mxGeometry>
        </mxCell>
        <mxCell id="w_pM22GlNIXaSQ3IIwrL-296" value="" style="edgeStyle=entityRelationEdgeStyle;fontSize=12;html=1;endArrow=ERone;endFill=0;rounded=0;exitX=0.471;exitY=1.145;exitDx=0;exitDy=0;exitPerimeter=0;startArrow=ERone;startFill=0;" edge="1" parent="WIyWlLk6GJQsqaUBKTNV-1" source="w_pM22GlNIXaSQ3IIwrL-70">
          <mxGeometry width="100" height="100" relative="1" as="geometry">
            <mxPoint x="990" y="850" as="sourcePoint" />
            <mxPoint x="1230" y="660" as="targetPoint" />
          </mxGeometry>
        </mxCell>
        <mxCell id="w_pM22GlNIXaSQ3IIwrL-297" value="Belongs to" style="edgeLabel;html=1;align=center;verticalAlign=middle;resizable=0;points=[];" vertex="1" connectable="0" parent="w_pM22GlNIXaSQ3IIwrL-296">
          <mxGeometry x="0.0215" relative="1" as="geometry">
            <mxPoint as="offset" />
          </mxGeometry>
        </mxCell>
        <mxCell id="w_pM22GlNIXaSQ3IIwrL-298" value="" style="edgeStyle=entityRelationEdgeStyle;fontSize=12;html=1;endArrow=ERone;endFill=0;rounded=0;exitX=0.471;exitY=1.145;exitDx=0;exitDy=0;exitPerimeter=0;startArrow=ERone;startFill=0;entryX=0;entryY=0.1;entryDx=0;entryDy=0;entryPerimeter=0;" edge="1" parent="WIyWlLk6GJQsqaUBKTNV-1" target="w_pM22GlNIXaSQ3IIwrL-255">
          <mxGeometry width="100" height="100" relative="1" as="geometry">
            <mxPoint x="860" y="849.9999999999999" as="sourcePoint" />
            <mxPoint x="1202.25" y="892.65" as="targetPoint" />
          </mxGeometry>
        </mxCell>
        <mxCell id="w_pM22GlNIXaSQ3IIwrL-299" value="Belongs to" style="edgeLabel;html=1;align=center;verticalAlign=middle;resizable=0;points=[];" vertex="1" connectable="0" parent="w_pM22GlNIXaSQ3IIwrL-298">
          <mxGeometry x="0.0215" relative="1" as="geometry">
            <mxPoint as="offset" />
          </mxGeometry>
        </mxCell>
        <mxCell id="w_pM22GlNIXaSQ3IIwrL-300" value="" style="edgeStyle=entityRelationEdgeStyle;fontSize=12;html=1;endArrow=ERone;endFill=0;rounded=0;startArrow=ERmany;startFill=0;entryX=0;entryY=0.5;entryDx=0;entryDy=0;" edge="1" parent="WIyWlLk6GJQsqaUBKTNV-1" target="w_pM22GlNIXaSQ3IIwrL-280">
          <mxGeometry width="100" height="100" relative="1" as="geometry">
            <mxPoint x="350" y="760" as="sourcePoint" />
            <mxPoint x="584" y="1076" as="targetPoint" />
          </mxGeometry>
        </mxCell>
        <mxCell id="w_pM22GlNIXaSQ3IIwrL-301" value="Approves" style="edgeLabel;html=1;align=center;verticalAlign=middle;resizable=0;points=[];" vertex="1" connectable="0" parent="w_pM22GlNIXaSQ3IIwrL-300">
          <mxGeometry x="-0.0167" y="3" relative="1" as="geometry">
            <mxPoint as="offset" />
          </mxGeometry>
        </mxCell>
        <mxCell id="w_pM22GlNIXaSQ3IIwrL-304" value="company.trip_requested" style="shape=table;startSize=30;container=1;collapsible=1;childLayout=tableLayout;fixedRows=1;rowLines=1;fontStyle=0;align=center;resizeLast=1;strokeColor=#d6b656;fillColor=#fff2cc;swimlaneLine=1;columnLines=1;swimlaneHead=1;swimlaneBody=1;horizontal=1;connectable=1;allowArrows=1;dropTarget=1;editable=1;movable=1;resizable=1;rotatable=1;deletable=1;" vertex="1" parent="WIyWlLk6GJQsqaUBKTNV-1">
          <mxGeometry x="410" y="43.5" width="280" height="220" as="geometry">
            <mxRectangle x="90" y="60" width="60" height="30" as="alternateBounds" />
          </mxGeometry>
        </mxCell>
        <mxCell id="w_pM22GlNIXaSQ3IIwrL-305" value="" style="shape=tableRow;horizontal=0;startSize=0;swimlaneHead=0;swimlaneBody=0;fillColor=none;collapsible=0;dropTarget=0;points=[[0,0.5],[1,0.5]];portConstraint=eastwest;top=0;left=0;right=0;bottom=0;" vertex="1" parent="w_pM22GlNIXaSQ3IIwrL-304">
          <mxGeometry y="30" width="280" height="30" as="geometry" />
        </mxCell>
        <mxCell id="w_pM22GlNIXaSQ3IIwrL-306" value="PK" style="shape=partialRectangle;connectable=0;fillColor=none;top=0;left=0;bottom=0;right=0;fontStyle=0;overflow=hidden;" vertex="1" parent="w_pM22GlNIXaSQ3IIwrL-305">
          <mxGeometry width="40" height="30" as="geometry">
            <mxRectangle width="40" height="30" as="alternateBounds" />
          </mxGeometry>
        </mxCell>
        <mxCell id="w_pM22GlNIXaSQ3IIwrL-307" value="is_car_available" style="shape=partialRectangle;connectable=0;fillColor=none;top=0;left=0;bottom=0;right=0;align=left;spacingLeft=6;fontStyle=0;overflow=hidden;" vertex="1" parent="w_pM22GlNIXaSQ3IIwrL-305">
          <mxGeometry x="40" width="110" height="30" as="geometry">
            <mxRectangle width="110" height="30" as="alternateBounds" />
          </mxGeometry>
        </mxCell>
        <mxCell id="w_pM22GlNIXaSQ3IIwrL-308" value="character varying(50)" style="shape=partialRectangle;connectable=0;fillColor=none;top=0;left=0;bottom=0;right=0;align=left;spacingLeft=6;fontStyle=0;overflow=hidden;" vertex="1" parent="w_pM22GlNIXaSQ3IIwrL-305">
          <mxGeometry x="150" width="130" height="30" as="geometry">
            <mxRectangle width="130" height="30" as="alternateBounds" />
          </mxGeometry>
        </mxCell>
        <mxCell id="w_pM22GlNIXaSQ3IIwrL-309" value="" style="shape=tableRow;horizontal=0;startSize=0;swimlaneHead=0;swimlaneBody=0;fillColor=none;collapsible=0;dropTarget=0;points=[[0,0.5],[1,0.5]];portConstraint=eastwest;top=0;left=0;right=0;bottom=1;" vertex="1" parent="w_pM22GlNIXaSQ3IIwrL-304">
          <mxGeometry y="60" width="280" height="33" as="geometry" />
        </mxCell>
        <mxCell id="w_pM22GlNIXaSQ3IIwrL-310" value="" style="shape=partialRectangle;connectable=0;fillColor=none;top=0;left=0;bottom=0;right=0;fontStyle=0;overflow=hidden;strokeColor=inherit;" vertex="1" parent="w_pM22GlNIXaSQ3IIwrL-309">
          <mxGeometry width="40" height="33" as="geometry">
            <mxRectangle width="40" height="33" as="alternateBounds" />
          </mxGeometry>
        </mxCell>
        <mxCell id="w_pM22GlNIXaSQ3IIwrL-311" value="expected_milage" style="shape=partialRectangle;connectable=0;fillColor=none;top=0;left=0;bottom=0;right=0;align=left;spacingLeft=6;fontStyle=0;overflow=hidden;strokeColor=inherit;" vertex="1" parent="w_pM22GlNIXaSQ3IIwrL-309">
          <mxGeometry x="40" width="110" height="33" as="geometry">
            <mxRectangle width="110" height="33" as="alternateBounds" />
          </mxGeometry>
        </mxCell>
        <mxCell id="w_pM22GlNIXaSQ3IIwrL-312" value="integer" style="shape=partialRectangle;connectable=0;fillColor=none;top=0;left=0;bottom=0;right=0;align=left;spacingLeft=6;fontStyle=0;overflow=hidden;strokeColor=inherit;" vertex="1" parent="w_pM22GlNIXaSQ3IIwrL-309">
          <mxGeometry x="150" width="130" height="33" as="geometry">
            <mxRectangle width="130" height="33" as="alternateBounds" />
          </mxGeometry>
        </mxCell>
        <mxCell id="w_pM22GlNIXaSQ3IIwrL-313" value="" style="shape=tableRow;horizontal=0;startSize=0;swimlaneHead=0;swimlaneBody=0;fillColor=none;collapsible=0;dropTarget=0;points=[[0,0.5],[1,0.5]];portConstraint=eastwest;top=0;left=0;right=0;bottom=0;" vertex="1" parent="w_pM22GlNIXaSQ3IIwrL-304">
          <mxGeometry y="93" width="280" height="30" as="geometry" />
        </mxCell>
        <mxCell id="w_pM22GlNIXaSQ3IIwrL-314" value="" style="shape=partialRectangle;connectable=0;fillColor=none;top=0;left=0;bottom=0;right=0;editable=1;overflow=hidden;strokeColor=inherit;" vertex="1" parent="w_pM22GlNIXaSQ3IIwrL-313">
          <mxGeometry width="40" height="30" as="geometry">
            <mxRectangle width="40" height="30" as="alternateBounds" />
          </mxGeometry>
        </mxCell>
        <mxCell id="w_pM22GlNIXaSQ3IIwrL-315" value="odometer" style="shape=partialRectangle;connectable=0;fillColor=none;top=0;left=0;bottom=0;right=0;align=left;spacingLeft=6;overflow=hidden;" vertex="1" parent="w_pM22GlNIXaSQ3IIwrL-313">
          <mxGeometry x="40" width="110" height="30" as="geometry">
            <mxRectangle width="110" height="30" as="alternateBounds" />
          </mxGeometry>
        </mxCell>
        <mxCell id="w_pM22GlNIXaSQ3IIwrL-316" value="" style="shape=partialRectangle;connectable=0;fillColor=none;top=0;left=0;bottom=0;right=0;align=left;spacingLeft=6;overflow=hidden;" vertex="1" parent="w_pM22GlNIXaSQ3IIwrL-313">
          <mxGeometry x="150" width="130" height="30" as="geometry">
            <mxRectangle width="130" height="30" as="alternateBounds" />
          </mxGeometry>
        </mxCell>
        <mxCell id="w_pM22GlNIXaSQ3IIwrL-317" value="" style="shape=tableRow;horizontal=0;startSize=0;swimlaneHead=0;swimlaneBody=0;fillColor=none;collapsible=0;dropTarget=0;points=[[0,0.5],[1,0.5]];portConstraint=eastwest;top=0;left=0;right=0;bottom=0;" vertex="1" parent="w_pM22GlNIXaSQ3IIwrL-304">
          <mxGeometry y="123" width="280" height="30" as="geometry" />
        </mxCell>
        <mxCell id="w_pM22GlNIXaSQ3IIwrL-318" value="" style="shape=partialRectangle;connectable=0;fillColor=none;top=0;left=0;bottom=0;right=0;editable=1;overflow=hidden;" vertex="1" parent="w_pM22GlNIXaSQ3IIwrL-317">
          <mxGeometry width="40" height="30" as="geometry">
            <mxRectangle width="40" height="30" as="alternateBounds" />
          </mxGeometry>
        </mxCell>
        <mxCell id="w_pM22GlNIXaSQ3IIwrL-319" value="" style="shape=partialRectangle;connectable=0;fillColor=none;top=0;left=0;bottom=0;right=0;align=left;spacingLeft=6;overflow=hidden;" vertex="1" parent="w_pM22GlNIXaSQ3IIwrL-317">
          <mxGeometry x="40" width="110" height="30" as="geometry">
            <mxRectangle width="110" height="30" as="alternateBounds" />
          </mxGeometry>
        </mxCell>
        <mxCell id="w_pM22GlNIXaSQ3IIwrL-320" style="shape=partialRectangle;connectable=0;fillColor=none;top=0;left=0;bottom=0;right=0;align=left;spacingLeft=6;overflow=hidden;" vertex="1" parent="w_pM22GlNIXaSQ3IIwrL-317">
          <mxGeometry x="150" width="130" height="30" as="geometry">
            <mxRectangle width="130" height="30" as="alternateBounds" />
          </mxGeometry>
        </mxCell>
        <mxCell id="w_pM22GlNIXaSQ3IIwrL-321" style="shape=tableRow;horizontal=0;startSize=0;swimlaneHead=0;swimlaneBody=0;fillColor=none;collapsible=0;dropTarget=0;points=[[0,0.5],[1,0.5]];portConstraint=eastwest;top=0;left=0;right=0;bottom=0;" vertex="1" parent="w_pM22GlNIXaSQ3IIwrL-304">
          <mxGeometry y="153" width="280" height="37" as="geometry" />
        </mxCell>
        <mxCell id="w_pM22GlNIXaSQ3IIwrL-322" style="shape=partialRectangle;connectable=0;fillColor=none;top=0;left=0;bottom=0;right=0;editable=1;overflow=hidden;" vertex="1" parent="w_pM22GlNIXaSQ3IIwrL-321">
          <mxGeometry width="40" height="37" as="geometry">
            <mxRectangle width="40" height="37" as="alternateBounds" />
          </mxGeometry>
        </mxCell>
        <mxCell id="w_pM22GlNIXaSQ3IIwrL-323" value="" style="shape=partialRectangle;connectable=0;fillColor=none;top=0;left=0;bottom=0;right=0;align=left;spacingLeft=6;overflow=hidden;" vertex="1" parent="w_pM22GlNIXaSQ3IIwrL-321">
          <mxGeometry x="40" width="110" height="37" as="geometry">
            <mxRectangle width="110" height="37" as="alternateBounds" />
          </mxGeometry>
        </mxCell>
        <mxCell id="w_pM22GlNIXaSQ3IIwrL-324" style="shape=partialRectangle;connectable=0;fillColor=none;top=0;left=0;bottom=0;right=0;align=left;spacingLeft=6;overflow=hidden;" vertex="1" parent="w_pM22GlNIXaSQ3IIwrL-321">
          <mxGeometry x="150" width="130" height="37" as="geometry">
            <mxRectangle width="130" height="37" as="alternateBounds" />
          </mxGeometry>
        </mxCell>
        <mxCell id="w_pM22GlNIXaSQ3IIwrL-325" style="shape=tableRow;horizontal=0;startSize=0;swimlaneHead=0;swimlaneBody=0;fillColor=none;collapsible=0;dropTarget=0;points=[[0,0.5],[1,0.5]];portConstraint=eastwest;top=0;left=0;right=0;bottom=0;" vertex="1" parent="w_pM22GlNIXaSQ3IIwrL-304">
          <mxGeometry y="190" width="280" height="30" as="geometry" />
        </mxCell>
        <mxCell id="w_pM22GlNIXaSQ3IIwrL-326" style="shape=partialRectangle;connectable=0;fillColor=none;top=0;left=0;bottom=0;right=0;editable=1;overflow=hidden;" vertex="1" parent="w_pM22GlNIXaSQ3IIwrL-325">
          <mxGeometry width="40" height="30" as="geometry">
            <mxRectangle width="40" height="30" as="alternateBounds" />
          </mxGeometry>
        </mxCell>
        <mxCell id="w_pM22GlNIXaSQ3IIwrL-327" value="" style="shape=partialRectangle;connectable=0;fillColor=none;top=0;left=0;bottom=0;right=0;align=left;spacingLeft=6;overflow=hidden;" vertex="1" parent="w_pM22GlNIXaSQ3IIwrL-325">
          <mxGeometry x="40" width="110" height="30" as="geometry">
            <mxRectangle width="110" height="30" as="alternateBounds" />
          </mxGeometry>
        </mxCell>
        <mxCell id="w_pM22GlNIXaSQ3IIwrL-328" style="shape=partialRectangle;connectable=0;fillColor=none;top=0;left=0;bottom=0;right=0;align=left;spacingLeft=6;overflow=hidden;" vertex="1" parent="w_pM22GlNIXaSQ3IIwrL-325">
          <mxGeometry x="150" width="130" height="30" as="geometry">
            <mxRectangle width="130" height="30" as="alternateBounds" />
          </mxGeometry>
        </mxCell>
        <mxCell id="w_pM22GlNIXaSQ3IIwrL-329" value="" style="edgeStyle=entityRelationEdgeStyle;fontSize=12;html=1;endArrow=ERone;endFill=0;rounded=0;startArrow=ERmany;startFill=0;entryX=0.5;entryY=0;entryDx=0;entryDy=0;" edge="1" parent="WIyWlLk6GJQsqaUBKTNV-1" source="w_pM22GlNIXaSQ3IIwrL-321" target="w_pM22GlNIXaSQ3IIwrL-49">
          <mxGeometry width="100" height="100" relative="1" as="geometry">
            <mxPoint x="550" y="267" as="sourcePoint" />
            <mxPoint x="990" y="580" as="targetPoint" />
          </mxGeometry>
        </mxCell>
        <mxCell id="w_pM22GlNIXaSQ3IIwrL-330" value="Request" style="edgeLabel;html=1;align=center;verticalAlign=middle;resizable=0;points=[];" vertex="1" connectable="0" parent="w_pM22GlNIXaSQ3IIwrL-329">
          <mxGeometry x="-0.0167" y="3" relative="1" as="geometry">
            <mxPoint as="offset" />
          </mxGeometry>
        </mxCell>
        <mxCell id="w_pM22GlNIXaSQ3IIwrL-331" value="" style="edgeStyle=entityRelationEdgeStyle;fontSize=12;html=1;endArrow=ERone;endFill=0;rounded=0;startArrow=ERmany;startFill=0;entryX=0.5;entryY=0;entryDx=0;entryDy=0;" edge="1" parent="WIyWlLk6GJQsqaUBKTNV-1">
          <mxGeometry width="100" height="100" relative="1" as="geometry">
            <mxPoint x="1040" y="170" as="sourcePoint" />
            <mxPoint x="915" y="360" as="targetPoint" />
          </mxGeometry>
        </mxCell>
        <mxCell id="w_pM22GlNIXaSQ3IIwrL-332" value="Make" style="edgeLabel;html=1;align=center;verticalAlign=middle;resizable=0;points=[];" vertex="1" connectable="0" parent="w_pM22GlNIXaSQ3IIwrL-331">
          <mxGeometry x="-0.0167" y="3" relative="1" as="geometry">
            <mxPoint as="offset" />
          </mxGeometry>
        </mxCell>
        <mxCell id="w_pM22GlNIXaSQ3IIwrL-333" value="" style="edgeStyle=entityRelationEdgeStyle;fontSize=12;html=1;endArrow=ERone;endFill=0;rounded=0;startArrow=ERmany;startFill=0;exitX=1;exitY=0.5;exitDx=0;exitDy=0;entryX=0;entryY=0.5;entryDx=0;entryDy=0;" edge="1" parent="WIyWlLk6GJQsqaUBKTNV-1" target="w_pM22GlNIXaSQ3IIwrL-276">
          <mxGeometry width="100" height="100" relative="1" as="geometry">
            <mxPoint x="320" y="430" as="sourcePoint" />
            <mxPoint x="600" y="740" as="targetPoint" />
          </mxGeometry>
        </mxCell>
        <mxCell id="w_pM22GlNIXaSQ3IIwrL-334" value="Records" style="edgeLabel;html=1;align=center;verticalAlign=middle;resizable=0;points=[];" vertex="1" connectable="0" parent="w_pM22GlNIXaSQ3IIwrL-333">
          <mxGeometry x="-0.0167" y="3" relative="1" as="geometry">
            <mxPoint as="offset" />
          </mxGeometry>
        </mxCell>
      </root>
    </mxGraphModel>
  </diagram>
</mxfile>
